<svg width="18" height="16" viewBox="0 0 18 16" fill="none" xmlns="http://www.w3.org/2000/svg">
<path d="M13.2397 8.47899H4.76023H0.966797V5.2806C0.966797 4.4624 1.63623 3.79297 2.45443 3.79297H5.72718H12.2727H15.4712C16.2894 3.79297 16.9588 4.4624 16.9588 5.2806V8.47899H13.2397Z" fill="#5B6072"/>
<path d="M13.2396 8.47949H17.033V13.5374C17.033 14.3556 16.3636 15.0251 15.5454 15.0251H2.52864C1.71045 15.0251 1.04102 14.3556 1.04102 13.5374V8.47949H4.83445H13.2396Z" fill="#707487"/>
<path d="M15.4714 15.9183H2.45462C1.11576 15.9183 0 14.8026 0 13.4637V5.28173C0 3.94286 1.11576 2.82715 2.45462 2.82715H5.72738C6.24805 2.82715 6.69433 3.27343 6.69433 3.7941C6.69433 4.31477 6.24805 4.76105 5.72738 4.76105H2.45462C2.1571 4.76105 1.85954 4.98421 1.85954 5.35611V13.5381C1.85954 13.8356 2.08272 14.1331 2.45462 14.1331H15.4714C15.7689 14.1331 16.0664 13.91 16.0664 13.5381V5.35611C16.0664 5.05859 15.8433 4.76105 15.4714 4.76105H12.2729C11.7523 4.76105 11.306 4.31477 11.306 3.7941C11.306 3.27343 11.7523 2.82715 12.2729 2.82715H15.4714C16.8102 2.82715 17.926 3.94286 17.926 5.28173V13.4637C17.926 14.8026 16.8102 15.9183 15.4714 15.9183Z" fill="#333333"/>
<path d="M12.2724 4.76041H5.6525C5.13183 4.76041 4.68555 4.31413 4.68555 3.79346V0.966972C4.68555 0.446302 5.13183 0 5.6525 0H12.2724C12.7931 0 13.2394 0.446302 13.2394 0.966972V3.79346C13.2394 4.31413 12.7931 4.76041 12.2724 4.76041ZM6.61945 2.90087H11.3799V1.93392H6.61945V2.90087Z" fill="#333333"/>
<path d="M17.0332 9.3724H1.04117C0.520498 9.3724 0.0742188 8.92612 0.0742188 8.40545C0.0742188 7.88478 0.520498 7.43848 1.04117 7.43848H17.0332C17.5538 7.43848 18.0001 7.88478 18.0001 8.40545C17.9257 8.92612 17.4795 9.3724 17.0332 9.3724Z" fill="#333333"/>
<path d="M13.2404 10.3385C12.7198 10.3385 12.2734 9.89225 12.2734 9.37158V6.5451C12.2734 6.02443 12.7198 5.57812 13.2404 5.57812C13.7611 5.57812 14.2074 6.02443 14.2074 6.5451V9.37158C14.133 9.89225 13.6867 10.3385 13.2404 10.3385Z" fill="#333333"/>
<path d="M4.75992 10.3385C4.23925 10.3385 3.79297 9.89225 3.79297 9.37158V6.5451C3.79297 6.02443 4.23925 5.57812 4.75992 5.57812C5.28059 5.57812 5.72687 6.02443 5.72687 6.5451V9.37158C5.72687 9.89225 5.28059 10.3385 4.75992 10.3385Z" fill="#333333"/>
</svg>
