<svg width="17" height="18" viewBox="0 0 17 18" fill="none" xmlns="http://www.w3.org/2000/svg">
<g clip-path="url(#clip0_37_5854)">
<path d="M13.4583 3.33366H12.75V1.91699H11.3333V3.33366H5.66667V1.91699H4.25V3.33366H3.54167C2.75542 3.33366 2.13208 3.97116 2.13208 4.75033L2.125 14.667C2.125 15.4462 2.75542 16.0837 3.54167 16.0837H13.4583C14.2375 16.0837 14.875 15.4462 14.875 14.667V4.75033C14.875 3.97116 14.2375 3.33366 13.4583 3.33366ZM13.4583 14.667H3.54167V7.58366H13.4583V14.667ZM13.4583 6.16699H3.54167V4.75033H13.4583V6.16699ZM6.375 10.417H4.95833V9.00033H6.375V10.417ZM9.20833 10.417H7.79167V9.00033H9.20833V10.417ZM12.0417 10.417H10.625V9.00033H12.0417V10.417ZM6.375 13.2503H4.95833V11.8337H6.375V13.2503ZM9.20833 13.2503H7.79167V11.8337H9.20833V13.2503ZM12.0417 13.2503H10.625V11.8337H12.0417V13.2503Z" fill="#A8A8A8"/>
</g>
<defs>
<clipPath id="clip0_37_5854">
<rect width="17" height="17" fill="white" transform="translate(0 0.5)"/>
</clipPath>
</defs>
</svg>
