<svg width="17" height="20" viewBox="0 0 17 20" fill="none" xmlns="http://www.w3.org/2000/svg">
<rect width="17" height="20" fill="#CFCFCF"/>
<rect id="Rectangle 963" x="-5626" y="-10812" width="31763" height="16935" stroke="black" stroke-width="50"/>
<g id="Product_mypage" clip-path="url(#clip0_1_2)">
<rect width="1920" height="1126" transform="translate(-622 -507)" fill="white"/>
<g id="position_ad_guide">
<rect x="-20" y="-20" width="267" height="59" rx="20" fill="#EDF6FD"/>
<g id="face_icon">
<g id="XMLID_18956_">
<path id="XMLID_18957_" d="M16.0764 4.90843L16.0105 6.87333V6.93885L13.1772 5.5634C12.8477 6.15287 12.2547 6.61137 11.5299 6.61137H3.62292C3.09579 6.61137 2.56866 6.41485 2.10742 6.08737C1.38262 5.4979 0.855469 4.58095 0.855469 3.5985V0.847656H2.10742H11.2664C12.0571 0.847656 12.7159 1.50262 13.0454 2.09209C13.1113 2.15758 13.1772 2.28858 13.1772 2.41957L16.0764 4.90843Z" fill="#A28671"/>
</g>
<g id="XMLID_18958_">
<path id="XMLID_18959_" d="M16.0129 6.87548C16.0788 7.07197 16.1447 7.26848 16.1447 7.46497C16.1447 11.3293 13.6408 18.2064 9.02838 18.2064C4.41598 18.2064 1.91211 11.3293 1.91211 7.46497C1.91211 6.941 1.97801 6.48253 2.0439 5.95856C2.50514 6.28604 3.03226 6.48252 3.5594 6.48252H11.4005C12.1253 6.48252 12.7842 6.02404 13.0477 5.43457L16.0129 6.87548Z" fill="#FFD8A8"/>
</g>
<g id="XMLID_18960_">
<path id="XMLID_18961_" d="M9.0269 15.1932C7.77496 15.1932 6.7207 14.6038 6.06178 14.1453C5.73232 13.8178 5.66645 13.3593 5.99591 12.9663C6.32536 12.6389 6.7866 12.5734 7.18194 12.9009C7.37962 13.0319 8.8951 14.3418 10.7401 12.9009C11.0695 12.6389 11.5967 12.6389 11.9261 13.0319C12.1897 13.3593 12.1897 13.8833 11.7943 14.2108C10.9378 14.8658 9.88349 15.1932 9.0269 15.1932Z" fill="#333333"/>
</g>
<g id="XMLID_18976_">
<path id="XMLID_18977_" d="M9.02807 19.1238C6.72187 19.1238 4.54747 17.5518 3.03196 14.7355C1.84592 12.5741 1.12109 9.75774 1.12109 7.53086C1.12109 7.00688 1.18698 6.41741 1.31876 5.89344C1.38465 5.43497 1.84589 5.17298 2.30713 5.23848C2.76837 5.30397 3.03194 5.76245 2.96605 6.22092C2.90016 6.6794 2.83426 7.13788 2.83426 7.53086C2.83426 9.49576 3.4932 12.0501 4.54746 13.9495C5.40405 15.5214 6.91953 17.4209 9.09395 17.4209C11.2684 17.4209 12.7839 15.5214 13.6405 13.9495C14.6947 11.9846 15.3536 9.49576 15.3536 7.53086C15.3536 7.46536 15.3537 7.26889 15.2878 7.13789C15.156 6.67942 15.4196 6.22094 15.8808 6.15544C16.342 6.02445 16.8033 6.28641 16.8692 6.74489C16.9351 7.00688 16.9351 7.26887 16.9351 7.53086C16.9351 9.75774 16.2102 12.5741 15.0242 14.7355C13.5087 17.5518 11.4002 19.1238 9.02807 19.1238Z" fill="#333333"/>
</g>
<g id="XMLID_18978_">
<path id="XMLID_18979_" d="M16.0116 7.72859C15.8798 7.72859 15.7481 7.72861 15.6822 7.66311L13.4419 6.61518C12.9148 7.13915 12.2558 7.46663 11.531 7.46663H3.62403C2.89923 7.46663 2.17444 7.20462 1.58141 6.74614C0.59304 6.02568 0 4.78125 0 3.60231V0.851468C0 0.392992 0.395341 0 0.856582 0H11.3333C12.5194 0 13.376 0.851456 13.8372 1.63742C13.9031 1.76841 13.969 1.83392 14.0349 1.89942L16.7365 4.32278C16.9341 4.45377 17 4.71576 17 4.91225L16.9341 6.87714C16.9341 7.13913 16.8024 7.40112 16.5388 7.53211C16.3411 7.6631 16.1434 7.72859 16.0116 7.72859ZM1.64729 1.63742V3.60231C1.64729 4.25728 2.04265 4.97775 2.56978 5.43623C2.76746 5.63272 3.16279 5.82921 3.62403 5.82921H11.4651C11.8605 5.82921 12.1899 5.63271 12.3876 5.23973C12.5853 4.84675 13.0465 4.65028 13.5078 4.84677L15.221 5.63271V5.30523L12.6512 2.94735C12.5194 2.88185 12.4535 2.75086 12.4535 2.61986V2.55438C12.4535 2.48889 12.3876 2.48888 12.3876 2.42338C12.1899 2.0304 11.7287 1.57193 11.3333 1.57193L1.64729 1.63742Z" fill="#333333"/>
</g>
<g id="XMLID_18982_">
<path id="XMLID_18983_" d="M12.0583 10.6765H11.1359C10.6746 10.6765 10.2793 10.2836 10.2793 9.82508C10.2793 9.3666 10.6746 8.97363 11.1359 8.97363H12.0583C12.5196 8.97363 12.915 9.3666 12.915 9.82508C12.915 10.2836 12.5196 10.6765 12.0583 10.6765Z" fill="#333333"/>
</g>
<g id="XMLID_18984_">
<path id="XMLID_18985_" d="M6.52517 10.6765H5.60268C5.14143 10.6765 4.74609 10.2836 4.74609 9.82508C4.74609 9.3666 5.14143 8.97363 5.60268 8.97363H6.52517C6.98641 8.97363 7.38175 9.3666 7.38175 9.82508C7.38175 10.2836 6.98641 10.6765 6.52517 10.6765Z" fill="#333333"/>
</g>
</g>
</g>
</g>
<defs>
<clipPath id="clip0_1_2">
<rect width="1920" height="1126" fill="white" transform="translate(-622 -507)"/>
</clipPath>
</defs>
</svg>
