<svg width="23" height="23" viewBox="0 0 23 23" fill="none" xmlns="http://www.w3.org/2000/svg">
<g clip-path="url(#clip0_37_12402)">
<path d="M19.4062 19.4062C23.7728 15.0397 23.7728 7.96025 19.4062 3.59375C15.0397 -0.772751 7.96025 -0.772751 3.59375 3.59375C-0.772751 7.96025 -0.772751 15.0397 3.59375 19.4062C7.96025 23.7728 15.0397 23.7728 19.4062 19.4062Z" fill="#67BEE5"/>
<mask id="mask0_37_12402" style="mask-type:luminance" maskUnits="userSpaceOnUse" x="0" y="0" width="23" height="23">
<path d="M19.4063 19.4063C23.7728 15.0397 23.7728 7.96025 19.4063 3.59375C15.0397 -0.772751 7.96025 -0.772752 3.59375 3.59375C-0.772751 7.96025 -0.772751 15.0397 3.59375 19.4063C7.96025 23.7728 15.0397 23.7728 19.4063 19.4063Z" fill="white"/>
</mask>
<g mask="url(#mask0_37_12402)">
<path d="M1.21286 6.78986C1.08699 6.76889 0.950633 6.77937 0.824766 6.81084C0.730365 6.93671 0.531075 7.01013 0.38423 7.05209C0.195428 6.92622 -0.0248408 6.82133 -0.23462 6.76888C-0.381466 6.72693 -0.549289 6.68497 -0.612223 6.55911C-0.717112 6.34933 -1.12618 6.32835 -1.34645 6.43324C-1.65063 6.41226 -1.9653 6.58008 -2.1541 6.82133C-2.23801 6.92622 -2.08068 7.11502 -1.97579 7.18844C-1.8709 7.27236 -1.73454 7.35627 -1.73454 7.49262C-1.82894 7.56605 -1.97579 7.59751 -2.10165 7.61849C-2.17508 7.62898 -2.2485 7.62898 -2.31143 7.66045C-2.37437 7.69191 -2.41632 7.77583 -2.38486 7.83876C-2.41632 7.93316 -2.45828 7.98561 -2.39535 8.04854C-2.3429 8.10098 -2.25899 8.13245 -2.2485 8.20587C-2.23801 8.26881 -2.27997 8.32125 -2.32192 8.35272C-2.36388 8.38419 -2.42681 8.41565 -2.46877 8.45761C-2.60512 8.58348 -2.56317 8.80374 -2.51072 8.98206C-2.38486 9.08695 -2.33241 9.28624 -2.35339 9.44357C-2.36388 9.5065 -2.37437 9.56944 -2.3429 9.62188C-2.31143 9.68482 -2.22752 9.69531 -2.1541 9.69531C-2.00725 9.7058 -1.82894 9.7058 -1.73454 9.59042C-1.48281 9.28624 -1.00031 9.3177 -0.612223 9.32819C-0.475866 9.32819 -0.329021 9.34917 -0.23462 9.44357C-0.108752 9.56944 -0.108753 9.77922 -0.161198 9.95753C-0.213643 10.1254 -0.308042 10.2932 -0.318531 10.4715C-0.339509 10.6393 -0.287064 10.8071 -0.245108 10.975C-0.182174 11.1742 -0.119241 11.384 0.0276039 11.5309C0.184938 11.6777 0.321295 11.9295 0.352762 12.1392C0.384229 12.3175 0.352762 12.4959 0.405207 12.6637C0.499608 12.9679 0.814277 13.1462 1.11846 13.2406C1.43313 13.335 1.73731 13.5552 1.89464 13.8489C1.97855 13.9958 2.02051 14.1531 2.09393 14.3104C2.2198 14.5727 2.44007 14.7825 2.6918 14.9188C2.8806 15.0132 3.15331 15.0027 3.36309 15.0027C3.46798 15.0027 3.59385 14.9922 3.68825 15.0447C3.73021 15.0657 3.76167 15.1076 3.80363 15.1391C4.00292 15.2754 4.3071 15.1391 4.51688 15.2754C4.56932 15.3069 4.61128 15.3593 4.66372 15.4013C4.78959 15.5062 4.97839 15.5481 5.14622 15.4957C5.13573 15.6321 5.31404 15.7474 5.29306 15.8838C5.27208 15.9887 5.1672 16.0621 5.10426 16.146C4.98888 16.3034 5.02035 16.5131 5.10426 16.681C5.19866 16.8488 5.34551 16.9642 5.50284 17.0795C5.78604 17.2893 6.07974 17.3522 6.38391 17.5411C6.65663 17.7089 6.7825 18.055 6.79298 18.3802C6.80347 18.7053 6.73005 19.02 6.68809 19.3451C6.61467 19.943 6.69858 20.5724 6.98179 21.1073C7.26499 21.6422 7.77895 22.0618 8.37682 22.1772C8.43975 22.1877 8.51317 22.1352 8.54464 22.0723C8.57611 22.0198 8.57611 21.9359 8.53415 21.8835C8.3978 21.7157 8.18802 21.6003 8.03068 21.4639C7.97824 21.422 7.92579 21.3695 7.9153 21.3066C7.90481 21.2332 7.95726 21.1702 7.99922 21.0968C8.05166 20.9919 8.07264 20.8765 8.04117 20.7716C8.02019 20.6668 7.93628 20.5724 7.9153 20.4675C7.89433 20.3626 7.93628 20.2367 8.02019 20.1843C8.06215 20.1633 8.11459 20.1528 8.15655 20.1213C8.28242 20.0269 8.21948 19.8172 8.3034 19.6808C8.34535 19.6179 8.40829 19.5759 8.46073 19.534C8.71247 19.3452 8.89078 19.041 8.84882 18.7263C8.81735 18.4746 8.67051 18.2019 8.82784 18.0026C8.9642 17.8243 9.2474 17.8662 9.46767 17.7823C9.55158 17.7508 9.60403 17.6564 9.625 17.562C9.64598 17.4676 9.63549 17.3732 9.60403 17.2893C9.56207 17.1844 9.48865 17.0795 9.47816 16.9642C9.45718 16.8068 9.56207 16.66 9.63549 16.5131C9.71941 16.3453 9.76136 16.146 9.77185 15.9572C9.78234 15.7369 9.59354 15.5167 9.38376 15.4537C9.17398 15.3908 8.95371 15.4328 8.73344 15.4642C8.51317 15.4957 8.28242 15.5272 8.08313 15.4433C7.90481 15.3593 7.76846 15.1915 7.61112 15.0657C7.3489 14.8559 7.00276 14.772 6.67761 14.6881C6.55174 14.6566 6.41538 14.6251 6.3 14.6881C6.25805 14.709 6.21609 14.751 6.17414 14.772C6.04827 14.8244 5.91191 14.7195 5.78605 14.6776C5.51333 14.5937 5.19866 14.8559 5.23013 15.1391C5.11475 15.2125 4.86301 15.223 4.76861 15.1181C4.69519 15.0447 4.65324 14.9398 4.55884 14.9188C4.50639 14.9083 4.44346 14.9293 4.4015 14.8978C4.32808 14.8559 4.35954 14.7405 4.34906 14.6566C4.33857 14.5202 4.2127 14.4049 4.07634 14.3734C3.93999 14.3419 3.79314 14.3629 3.65679 14.3839C3.52043 14.4049 3.37358 14.4258 3.23723 14.3944C2.975 14.3209 2.80718 14.0168 2.87011 13.744C2.92256 13.4713 3.17429 13.272 3.43652 13.2196C3.69874 13.1776 4.01341 13.314 4.07634 13.5762C4.08683 13.6392 4.20221 13.6287 4.25466 13.5867C4.3071 13.5448 4.32808 13.4713 4.32808 13.3979C4.32808 13.335 4.31759 13.2616 4.32808 13.1986C4.34906 13.0413 4.47492 12.9049 4.62177 12.8735C4.7791 12.842 4.86302 12.6637 4.95742 12.5273C5.05182 12.391 5.08328 12.2022 5.00986 12.0658C4.96791 11.9924 4.89448 11.919 4.90497 11.8246C4.91546 11.7511 4.9679 11.7092 5.03084 11.6672C5.18817 11.5623 5.37697 11.4889 5.56578 11.4575C5.7336 11.4365 5.79653 11.3106 5.84898 11.1533C5.89093 11.0379 5.89093 10.9015 5.97484 10.8176C6.10071 10.6813 6.31049 10.7337 6.4888 10.6918C6.74054 10.6183 6.88738 10.2932 6.76152 10.0624C6.69858 9.94704 6.60418 9.87362 6.50978 9.77922C6.38391 9.65335 6.28951 9.5065 6.22658 9.34917C6.16365 9.20232 6.12169 9.0345 5.99582 8.9401C5.83849 8.98206 5.64969 9.01352 5.52382 9.10792C5.46089 8.95059 5.39795 8.79326 5.27208 8.67788C5.14622 8.57299 4.94693 8.53103 4.82106 8.64641C4.69519 8.7513 4.70568 8.95059 4.76861 9.09744C4.82106 9.24428 4.91546 9.39113 4.94693 9.54846C4.97839 9.70579 4.89448 9.90509 4.73715 9.93655C4.65324 9.94704 4.56932 9.91557 4.4959 9.86313C4.39101 9.80019 4.3071 9.7058 4.19172 9.67433C4.09732 9.65335 4.00292 9.67433 3.91901 9.67433C3.60434 9.66384 3.33163 9.35966 3.3526 9.04499C3.37358 8.73032 3.69874 8.4681 4.01341 8.51005C4.33857 8.31076 4.4015 7.82827 4.18123 7.5136C3.97145 7.18844 3.54141 7.05209 3.1638 7.10453C3.04843 7.12551 2.94353 7.15698 2.82816 7.14649C2.51349 7.12551 2.28273 6.83182 1.98904 6.71644C1.80024 6.64302 1.41215 6.82133 1.21286 6.78986Z" fill="#AAD900"/>
<path d="M5.77516 4.75422C5.69125 4.95351 5.86956 5.17378 6.06885 5.26818C6.26814 5.36258 6.48841 5.39405 6.65623 5.54089C6.92895 5.76116 6.93944 6.17023 6.88699 6.51637C6.83455 6.8625 6.72966 7.21913 6.83455 7.55477C6.88699 7.71211 6.98139 7.84847 7.09677 7.97433C7.20166 8.08971 7.34851 8.1946 7.50584 8.20509C7.70513 8.21558 7.88344 8.05825 7.99882 7.90091C8.1142 7.73309 8.2086 7.54429 8.37642 7.42891C8.60718 7.2506 8.95332 7.22962 9.14212 7.00935C9.37288 6.73664 9.24701 6.31708 9.2575 5.96045C9.26799 5.35209 9.68755 4.82765 9.77146 4.21929C9.79243 4.10391 9.79243 3.97804 9.76097 3.86266C9.67706 3.48506 9.29945 3.24381 8.92185 3.18088C8.44985 3.11794 8.03029 3.29626 7.57926 3.36968C7.32753 3.41164 7.04433 3.35919 6.82406 3.50604C6.48841 3.73679 6.66672 4.07244 6.46743 4.33466C6.29961 4.53395 5.89054 4.46053 5.77516 4.75422Z" fill="#AAD900"/>
<path d="M16.0867 5.06922C15.8349 4.91189 15.5308 5.17411 15.3525 5.41536C15.1741 5.6566 14.9958 5.88736 14.8175 6.12861C14.6812 6.30692 14.5448 6.49572 14.335 6.56914C14.1253 6.65305 13.842 6.55865 13.7896 6.34887C13.905 6.18105 14.2406 6.3279 14.3455 6.14958C14.4399 5.99225 14.2196 5.83491 14.0518 5.78247C13.7372 5.67758 13.412 5.5622 13.0764 5.58318C12.7407 5.60416 12.3946 5.78247 12.2897 6.09714C12.1953 6.36985 12.2792 6.67403 12.1848 6.94675C12.1219 7.11457 11.996 7.25093 11.9226 7.41875C11.8491 7.58657 11.8491 7.80684 11.996 7.90124C12.1114 7.98515 12.2897 7.9432 12.4051 8.02711C12.4995 8.09004 12.5519 8.21591 12.6568 8.23689C12.7827 8.25786 12.8876 8.132 12.8876 7.99564C12.8876 7.86977 12.8246 7.7544 12.7827 7.62853C12.6463 7.2719 12.7407 6.78941 13.0973 6.65305C13.1812 6.64257 13.2337 6.75794 13.2127 6.83137C13.1917 6.91528 13.1288 6.97821 13.0973 7.06212C13.0554 7.21946 13.1812 7.39777 13.3386 7.40826C13.5064 7.41875 13.7686 7.33484 13.7791 7.50266C13.7896 7.68097 13.4435 7.62853 13.37 7.79635C13.3281 7.89075 13.4015 7.99564 13.4225 8.10053C13.4644 8.29982 13.2652 8.47813 13.0659 8.53058C12.8666 8.58302 12.6568 8.56205 12.4575 8.62498C12.2582 8.68791 12.0694 8.86623 12.1219 9.06552C11.8701 9.25432 11.5974 9.41165 11.3142 9.5585C11.3667 9.77876 11.7862 9.71583 11.8282 9.9361C11.8491 10.0725 11.7023 10.1669 11.5764 10.1878C11.4401 10.2088 11.3037 10.1773 11.1779 10.2403C10.9681 10.3452 10.9576 10.6703 11.1149 10.8382C11.2723 11.006 11.545 11.027 11.7652 10.964C11.8596 10.943 11.9435 10.8906 11.9855 10.8172C12.0275 10.7333 12.017 10.6493 12.017 10.5549C12.0275 10.3557 12.1638 10.1669 12.3421 10.0934C12.447 10.0515 12.5729 10.02 12.6148 9.91512C12.8876 9.99903 13.1078 10.2193 13.1917 10.492C13.2861 10.5759 13.4435 10.4081 13.4015 10.2927C13.3596 10.1669 13.2337 10.1039 13.1183 10.0305C13.0134 9.95708 12.9085 9.83121 12.961 9.70534C13.4015 9.7473 13.8106 10.041 13.9889 10.4501C14.1252 10.3871 14.1672 10.1773 14.0623 10.0725C14.0833 9.95708 14.2616 9.98854 14.335 10.0829C14.398 10.1773 14.4189 10.3032 14.5133 10.3766C14.7651 10.5969 15.2266 10.1773 15.4469 10.4186C15.6042 10.5864 15.3839 10.8696 15.1637 10.9116C14.9329 10.9535 14.7021 10.8591 14.4714 10.8801C14.2196 10.9011 13.9994 11.0584 13.7581 11.1423C13.5169 11.2158 13.1917 11.1843 13.0868 10.9535C13.0554 10.8906 13.0554 10.8172 13.0029 10.7647C12.94 10.6913 12.8246 10.6913 12.7302 10.7228C12.3316 10.8486 11.996 11.3626 11.6079 11.1948C11.4715 11.6668 10.9786 11.929 10.7478 12.359C10.5066 12.8311 10.6534 13.4499 11.052 13.796C11.4506 14.1422 12.0379 14.2261 12.5414 14.0583C12.6568 14.0163 12.7722 13.9639 12.898 13.9953C13.0134 14.0163 13.1078 14.1107 13.2127 14.1632C13.3176 14.2156 13.4749 14.2261 13.5379 14.1212C13.4959 14.352 13.5693 14.6037 13.7267 14.7715C13.905 14.9498 14.1882 15.0652 14.2301 15.3169C14.2511 15.4428 14.1987 15.5792 14.1882 15.705C14.1462 16.3029 14.9014 16.6281 15.1217 17.184C15.1846 17.3308 15.2161 17.5196 15.3629 17.5826C15.4364 17.614 15.5098 17.6035 15.5832 17.593C15.9608 17.5406 16.4118 17.3413 16.4118 16.9532C16.4118 16.8483 16.3804 16.7434 16.3594 16.6385C16.307 16.3239 16.4433 15.9777 16.695 15.7784C16.7685 15.726 16.8419 15.6841 16.8943 15.6106C16.9992 15.4533 16.9258 15.233 16.8209 15.0757C16.716 14.9184 16.5797 14.761 16.5692 14.5617C16.5482 14.2576 16.8419 14.0268 17.0517 13.8065C17.3663 13.4604 17.5342 12.9884 17.5132 12.5269C17.1985 12.7052 16.7999 12.873 16.4853 12.6842C16.3804 12.6213 16.2965 12.5164 16.223 12.4115C15.9923 12.1073 15.772 11.8031 15.5413 11.5094C15.5098 11.4675 15.4783 11.4255 15.4888 11.3731C15.5098 11.2367 15.7196 11.3102 15.814 11.4046C16.1496 11.7507 16.4643 12.1178 16.7475 12.5059C17.1461 12.3486 17.5027 12.0968 17.7964 11.7822C17.8908 11.6773 17.9747 11.5619 17.9852 11.4255C17.9957 11.2892 17.9013 11.1423 17.7544 11.1423C17.702 11.1423 17.6495 11.1633 17.5971 11.1843C17.2929 11.2787 16.9782 11.1004 16.7265 10.9011C16.8314 10.7123 17.1041 10.7542 17.3139 10.8067C17.6915 10.8906 18.0691 10.9326 18.4572 10.9221C18.5516 10.9221 18.646 10.9116 18.7404 10.943C18.8033 10.964 18.8663 10.9955 18.9187 11.027C19.4222 11.3311 19.8417 11.7822 20.1144 12.3066C20.2823 12.3066 20.3557 12.0863 20.3347 11.9185C20.3137 11.7507 20.2613 11.5619 20.3557 11.4255C20.4291 11.3206 20.5864 11.2682 20.6494 11.1528C20.7228 11.006 20.6284 10.7962 20.7333 10.6598C20.8592 10.492 21.1424 10.6074 21.2577 10.7857C21.3731 10.964 21.457 11.1843 21.6458 11.2682C21.7402 11.2367 21.8241 11.2053 21.9185 11.1738C22.0129 11.6458 22.2647 12.0758 22.6318 12.38C22.7786 12.2646 22.6528 12.0444 22.5269 11.908C22.401 11.7822 22.2542 11.5724 22.3801 11.436C22.5794 11.3941 22.7157 11.6458 22.915 11.6563C23.1143 11.6668 23.2402 11.4046 23.1667 11.2262C23.0933 11.0374 22.9045 10.9326 22.7157 10.8696C22.5269 10.7333 22.6947 10.4291 22.915 10.3452C23.1248 10.2613 23.387 10.2822 23.5653 10.1354C23.7856 9.96757 23.7961 9.63192 23.6912 9.38018C23.5863 9.12845 23.3765 8.92916 23.2087 8.71938C23.0618 8.54107 22.9465 8.23689 23.1353 8.10053C23.1877 8.06906 23.2506 8.05858 23.3136 8.0376C24.1107 7.83831 24.6037 6.86283 24.2891 6.10763C24.2261 5.96078 24.1422 5.82443 24.0163 5.74051C23.7856 5.58318 23.4499 5.60416 23.2611 5.39438C23.0304 5.14264 23.1667 4.72309 23.4185 4.48184C23.6597 4.24059 23.9849 4.09375 24.2051 3.83152C24.2786 3.82103 24.2995 3.73712 24.2995 3.67419C24.2995 3.63223 24.2786 3.59028 24.2681 3.54832C24.2471 3.43294 24.31 3.29659 24.4149 3.24414C24.5198 3.1917 24.6667 3.21267 24.7506 3.29659C24.8555 3.40148 24.8555 3.57979 24.824 3.72663C24.7925 3.87348 24.7401 4.02032 24.7506 4.16717C24.7611 4.31402 24.8869 4.47135 25.0338 4.46086C25.2226 4.45037 25.296 4.20913 25.2645 4.03081C25.2435 3.8525 25.1701 3.65321 25.2331 3.48539C25.3379 3.22316 25.726 3.08681 25.6841 2.81409C25.6526 2.59383 25.338 2.5204 25.254 2.31062C25.2121 2.22671 25.2226 2.13231 25.2121 2.03791C25.1806 1.70226 24.9603 1.3876 24.6562 1.23026C24.352 1.07293 23.9744 1.08342 23.6702 1.25124C23.5758 1.30368 23.4814 1.37711 23.387 1.42955C23.2402 1.50297 23.0723 1.52395 22.915 1.54493C22.6213 1.58689 22.3276 1.61835 22.0444 1.66031C21.7822 1.69177 21.5095 1.73373 21.2997 1.90155C21.006 2.1428 20.9011 2.6148 20.534 2.74067C20.2718 2.82458 20.0096 2.68823 19.7368 2.64627C19.3068 2.57285 18.8348 2.74067 18.5621 3.07632C18.4257 3.03436 18.4257 2.84556 18.3523 2.71969C18.2789 2.59383 18.1111 2.53089 17.9642 2.55187C17.8174 2.57285 17.681 2.64627 17.5447 2.71969C17.2615 2.87703 16.9468 3.11827 16.9782 3.43294C16.9887 3.52734 17.0307 3.61125 17.0097 3.70566C16.9782 3.83152 16.8419 3.89446 16.7685 4.00984C16.6846 4.1357 16.695 4.30353 16.7265 4.46086C16.7475 4.60771 16.779 4.77553 16.716 4.91189C16.6636 4.9958 16.2126 5.15313 16.0867 5.06922Z" fill="#AAD900"/>
<path d="M22.4848 12.7791C22.9987 13.3875 23.8483 13.6812 24.6245 13.5133C24.6665 13.4504 24.5721 13.377 24.4987 13.3665C24.2889 13.3245 24.0686 13.3245 23.8483 13.2931C23.6386 13.2616 23.4183 13.1987 23.261 13.0413C23.198 12.9784 23.1456 12.905 23.0931 12.8316C22.9253 12.6323 22.3589 12.1498 22.0967 12.3386C22.1911 12.4749 22.3589 12.6323 22.4848 12.7791Z" fill="#AAD900"/>
</g>
</g>
<defs>
<clipPath id="clip0_37_12402">
<rect width="23" height="23" fill="white"/>
</clipPath>
</defs>
</svg>
