<svg width="86" height="109" viewBox="0 0 86 109" fill="none" xmlns="http://www.w3.org/2000/svg">
<g clip-path="url(#clip0_37_11946)">
<path d="M21.6846 95.0633C21.6846 95.0633 65.2009 86.8479 81.7223 96.9704C98.2438 107.093 62.3981 108.56 40.7137 107.973L45.4342 99.3176C36.1408 100.198 28.4702 99.0242 19.1769 99.7577C19.3244 96.9704 19.1769 96.2369 21.6846 95.0633Z" fill="#E35B36"/>
<path d="M24.4879 100.345C23.1603 102.252 17.4073 105.919 16.3747 106.359C13.5719 107.826 10.1791 106.066 10.4742 104.305C10.4742 104.012 10.4742 103.719 10.4742 103.279C10.4742 102.692 18.7349 97.8506 18.7349 97.5572C18.8824 96.9704 18.7349 96.3836 19.0299 95.7968C19.4725 94.6231 24.4879 94.9165 24.3404 95.9435C24.1929 97.2638 24.4879 97.8506 24.7829 98.4374C24.9304 98.8775 24.9304 99.611 24.7829 99.9044C24.6354 100.051 24.6354 100.198 24.4879 100.345Z" fill="#2F2C37"/>
<path d="M24.4879 99.3176C23.1603 101.225 17.4073 104.892 16.3747 105.332C13.572 106.799 10.0317 104.892 10.4742 103.279C11.0643 100.931 18.7349 96.8237 18.7349 96.5303C18.8824 95.9435 18.7349 95.3567 19.0299 94.7698C19.4725 93.5962 24.4879 93.8896 24.3404 94.9165C23.8979 97.5572 25.2255 98.2907 24.4879 99.3176Z" fill="#110F14"/>
<path d="M47.2045 102.692C46.6144 104.012 46.1719 105.039 45.7293 106.213C44.8443 108.266 43.6642 108.707 41.599 109C40.1239 109.147 38.3537 109 37.6161 108.266C37.0261 107.68 37.1736 106.799 37.1736 105.919C37.1736 104.599 38.6487 103.865 39.5338 102.838C40.2714 101.812 41.894 98.4374 42.0415 97.9973C42.189 97.5572 42.0415 96.3836 42.0415 95.9435C42.0415 95.6501 46.0244 94.4764 46.9095 95.7968C47.2045 96.2369 47.647 96.8237 47.942 97.4105C48.8271 98.7308 48.9746 99.0242 48.8271 99.7577C48.5321 100.198 47.942 101.225 47.2045 102.692Z" fill="#2F2C37"/>
<path d="M46.9098 101.371C46.3198 102.692 45.8772 104.159 45.1397 105.186C43.9596 107.24 43.517 107.68 41.5994 107.973C40.1242 108.12 38.3541 107.973 37.6165 107.24C37.0265 106.653 37.0265 105.773 37.3215 105.039C37.764 103.865 38.6491 102.985 39.3867 101.812C40.1242 100.785 41.7469 97.4105 41.8944 96.9704C42.0419 96.5303 41.8944 95.3566 41.8944 94.9165C41.8944 94.6231 45.8772 93.4495 46.7623 94.7698C47.0573 95.2099 47.0573 95.9435 47.3524 96.5303C48.68 98.2907 48.385 98.144 46.9098 101.371Z" fill="#110F14"/>
<path d="M42.7792 68.9502C42.7792 71.4441 43.0742 75.1117 43.0742 75.1117C43.0742 75.1117 43.5168 76.432 44.5493 77.7523C47.3521 82.0067 47.4996 90.0754 47.3521 95.2099C47.2046 97.5572 41.7466 98.2907 41.3041 95.7968C41.1565 94.6231 38.5013 86.8479 38.2063 85.6743C37.7637 83.9139 35.256 78.926 34.666 77.1655C32.8958 72.4711 30.3881 64.5491 29.7981 59.5612C29.0605 62.2019 26.2577 73.3513 26.1102 73.9381C25.8152 74.965 26.7003 81.7133 26.4053 83.9139C25.8152 87.8748 25.2252 91.3957 24.7826 95.3567C24.7826 97.4105 18.7346 97.5572 18.8821 95.3567C18.2921 91.1023 17.8495 87.5814 17.2595 83.327C17.1119 82.3001 16.9644 81.1265 16.8169 80.0996C16.6694 78.1925 16.9644 74.2315 16.9644 72.3244C17.1119 64.2557 17.997 60.4414 18.7346 56.4805C18.8821 55.3069 20.0622 49.8789 20.2097 48.7052C20.3572 47.5316 20.7998 45.7712 20.7998 45.7712C20.9473 44.7443 21.5373 43.2772 22.5699 43.2772C23.16 43.2772 24.4876 43.2772 25.2252 43.2772C27.7329 43.1305 30.2406 44.1575 32.7483 44.5976C35.6986 45.0377 40.2715 43.8641 41.8941 47.0915C42.3366 47.9717 42.3366 50.6124 42.4842 52.0794C42.4842 54.2799 42.7792 63.0821 42.7792 68.9502Z" fill="#2A1A2F"/>
<path d="M59.5951 52.8129L46.909 51.0525C51.7769 44.1575 53.8421 37.1157 52.957 29.9273L65.4956 31.6878C66.9707 36.8223 63.8729 44.5976 59.5951 52.8129Z" fill="white"/>
<path d="M12.5393 35.6487C13.5719 34.7685 21.8326 26.4065 21.8326 26.4065C21.8326 26.4065 25.0779 11.0027 27.8806 11.4428C30.8309 11.8829 32.011 17.4576 34.0762 18.6312C34.0762 18.6312 29.6508 27.7268 28.1757 30.5141C27.4381 31.8345 15.7846 40.1965 15.342 40.4899C13.4244 41.5168 10.7691 37.2625 12.5393 35.6487Z" fill="#313131"/>
<path d="M11.9488 36.3822C13.2764 35.2086 16.6692 38.8762 14.899 40.1965C13.4239 41.5168 10.3261 37.4092 11.9488 36.3822Z" fill="white"/>
<path d="M2.36122 41.6635C2.50874 41.6635 2.50874 41.5168 2.65625 41.5168C3.09879 41.3701 3.54133 41.0767 3.98387 40.93C4.57392 40.6366 5.16397 40.3432 5.60651 40.0498C5.60651 40.0498 7.37666 38.4361 7.52417 38.1427C7.67169 37.996 7.8192 37.8493 7.96671 37.7026C8.55676 37.2625 8.9993 37.2625 9.29433 36.5289C10.0319 36.6756 11.212 36.8223 11.802 36.6756C12.9822 35.9421 15.7849 38.8762 14.1623 40.0498C12.5396 41.2234 12.5396 41.0767 11.212 42.1036C10.4744 42.6904 6.19656 44.5976 5.31148 44.1575C5.16397 44.1575 5.16397 44.0108 5.01645 43.8641C4.4264 43.8641 4.27889 43.7174 3.83635 43.424C2.95127 43.5707 2.80376 43.1306 2.65625 42.9839C2.50874 42.8371 2.50874 42.6904 2.65625 42.5437C2.36122 42.5437 2.21371 42.5437 2.0662 42.397C1.62366 42.2503 2.0662 41.9569 2.36122 41.6635Z" fill="#FCBE9F"/>
<path d="M5.16343 36.969C6.34353 36.969 7.67115 36.0888 8.70374 36.3822C8.99876 36.5289 9.4413 36.6756 9.73633 36.6756L7.81866 38.1427L7.67115 37.996C7.52364 37.996 7.22861 38.1427 6.78607 38.1427C5.45845 38.2894 4.42586 37.8493 4.27835 37.2625C4.13084 37.1157 4.42587 36.969 5.16343 36.969Z" fill="#FCBE9F"/>
<path d="M41.3047 41.5168C41.1572 43.1305 41.7472 45.0377 41.8947 45.6245C42.7798 51.786 20.5053 49.7322 22.2755 42.397C22.5705 41.0767 23.7506 22.8856 26.2584 16.8708C26.8484 15.5505 26.9959 13.9367 28.0285 12.9098C29.9462 11.2961 51.0405 17.751 48.8278 22.4455C46.0251 28.3136 41.8947 34.9152 41.3047 41.5168Z" fill="#464646"/>
<path d="M44.8449 23.4724C45.5824 24.3526 46.32 25.0861 47.2051 25.9664C44.6974 30.8075 41.8946 36.2355 41.3046 41.6635C41.1571 43.2773 41.7471 45.1844 41.8946 45.7712C42.1896 47.825 40.1245 48.7053 37.3217 48.9987C38.6493 35.3553 40.7145 31.2476 44.8449 23.4724Z" fill="#313131"/>
<path d="M39.8286 19.6581C36.5834 23.3257 31.7154 25.9664 31.7154 25.9664C31.7154 25.9664 29.3552 16.5774 32.6005 14.3768C33.9281 13.4966 37.7635 13.4966 39.2386 14.6703C40.5662 15.5505 40.2712 17.6043 39.8286 19.6581Z" fill="#F1EDE8"/>
<path d="M39.8284 14.6703C43.3687 17.751 37.7632 22.5922 37.7632 22.5922L35.108 19.6581L34.3704 17.6043C34.3704 17.4576 35.9931 11.2961 39.8284 14.6703Z" fill="white"/>
<path d="M34.5186 12.9098L33.486 18.3378L29.9457 18.0444C29.7981 18.0444 31.2733 14.9637 34.5186 12.9098Z" fill="white"/>
<path d="M35.1082 19.5114L33.1905 21.5653L32.8955 18.3378C32.4529 15.8439 34.2231 12.4697 35.2557 10.7093C35.5507 10.2692 35.8457 9.82907 36.2883 9.53567C36.7308 9.24226 37.4684 9.09556 38.0584 9.09556C38.9435 9.09556 39.8286 9.24226 40.5661 9.68237C40.8612 9.82907 41.1562 10.1225 41.3037 10.5626C41.3037 10.856 41.3037 11.1494 41.1562 11.2961C40.5661 12.9098 40.4186 13.4966 40.1236 15.2571C39.5336 18.6312 37.0258 19.3647 35.1082 19.5114Z" fill="#F2A883"/>
<path d="M40.8622 8.06864C40.8622 8.80215 41.0097 9.38896 41.1572 10.1225C41.3047 10.856 40.7146 11.7362 40.5671 12.323C40.2721 13.2032 39.6821 13.9367 39.092 14.5236C38.2069 15.2571 37.1743 15.6972 36.1418 15.9906C34.9616 16.4307 33.7815 16.7241 32.4539 16.7241C31.4213 16.7241 29.9462 16.8708 29.6512 15.5505C29.5037 14.9637 29.5037 14.3769 29.6512 13.9367C29.7987 13.3499 29.9462 12.7631 29.7987 12.323C29.7987 11.8829 29.6512 11.2961 29.6512 10.856C29.6512 10.4159 29.9462 9.97577 30.2412 9.38896C30.3887 8.94886 30.5363 8.36205 30.5363 7.92194C30.5363 7.62853 30.5363 7.33513 30.5363 7.18843C30.5363 7.04172 30.6838 6.74832 30.8313 6.60162C31.1263 6.16151 31.4213 5.5747 31.7164 5.13459C31.8639 4.84118 32.1589 4.40108 32.4539 4.10767C32.8965 3.66756 33.4865 3.52086 34.2241 3.37416C35.5517 3.08075 37.0268 3.08075 38.2069 3.66756C39.387 4.10767 40.5671 5.28129 40.8622 6.60162C40.7146 7.04172 40.7146 7.62853 40.8622 8.06864Z" fill="#FABC9D"/>
<path d="M32.4535 1.61373C32.7486 1.61373 33.4861 1.46703 33.6336 1.32032C33.9287 1.17362 34.6662 0.293405 35.1088 0.293405C35.6988 0.293405 36.1414 0.58681 36.7314 0.440108C37.3215 0.293405 37.6165 0 38.059 0C38.5016 0 38.9441 0.293405 39.5342 0.440108C40.2717 0.58681 41.0093 0.293405 41.4518 0.733513C41.8944 1.32032 41.5993 1.17362 42.3369 1.32032C43.222 1.46703 42.927 2.78735 43.812 3.08075C44.5496 3.37416 44.2546 3.66756 44.4021 4.40108C44.5496 4.98789 44.9921 5.28129 45.1396 5.8681C45.1396 6.60161 45.1397 7.04172 44.8446 7.77524C44.5496 8.50875 44.9921 9.38896 44.2546 10.1225C43.9595 10.4159 43.812 10.5626 43.6645 11.0027C43.517 12.0296 43.517 11.7362 42.6319 12.323C42.1894 12.6164 42.3369 13.2032 42.0419 13.6433C41.7469 14.0834 41.3043 14.2301 41.0093 14.5236C40.8618 14.6703 40.1242 15.5505 40.2717 15.5505C39.8292 14.6703 39.5342 13.6433 39.6817 13.3499C40.1242 12.4697 40.4192 11.2961 39.3866 11.8829C38.9441 12.1763 38.7966 12.323 38.6491 12.323C38.3541 12.323 38.3541 12.1763 38.2065 11.8829C38.059 10.856 37.6165 9.97577 37.0264 9.09556C35.6988 7.48183 33.6336 5.5747 32.1585 5.28129C31.8635 5.28129 31.5685 5.42799 31.421 5.7214L31.1259 4.40108C31.1259 2.78735 31.421 1.90713 32.4535 1.61373Z" fill="#2A1A2F"/>
<path d="M39.2396 11.8829C40.2722 10.856 41.3047 10.2692 41.7473 10.7093C42.1898 11.1494 41.7473 12.323 40.8622 13.3499C39.9771 14.3769 38.6495 14.6703 38.3545 14.5236C37.912 14.0834 38.3545 12.9098 39.2396 11.8829Z" fill="#FABC9D"/>
<path d="M14.605 55.1602L32.6016 44.891V41.5168L17.9978 48.7052L14.605 51.786V55.1602Z" fill="#C9C9C9"/>
<path d="M1.91936 47.6783L14.6055 55.1602V51.786L1.91936 44.1575V47.6783Z" fill="#DDDDDD"/>
<path d="M14.605 51.786L32.4541 41.5168L19.3255 34.035L1.4764 44.1575L14.605 51.786Z" fill="white"/>
<path d="M31.8633 40.7833L18.2921 33.4482L0.590553 44.4509L14.1617 51.786L31.8633 40.7833Z" fill="white"/>
<path d="M14.1626 51.1992L32.1592 41.0767V38.5828L14.1626 48.8519V51.1992Z" fill="#C9C9C9"/>
<path d="M1.62449 43.7174L14.1631 51.1992V48.8519L1.62449 41.3701V43.7174Z" fill="#DDDDDD"/>
<path d="M14.4576 48.8519L32.1592 38.5828L19.178 31.1009L1.32899 41.3701L14.4576 48.8519Z" fill="white"/>
<path d="M16.3751 48.2651L32.6016 38.1427V34.6218L16.3751 44.891V48.2651Z" fill="#C9C9C9"/>
<path d="M1.91874 40.7833L16.375 48.2651V44.891L1.91874 37.4091V40.7833Z" fill="#DDDDDD"/>
<path d="M15.6373 44.891L33.4863 34.6218L20.5052 27.14L2.65614 37.4091L15.6373 44.891Z" fill="white"/>
<path d="M32.4541 33.7416L18.7354 26.5532L1.03386 37.4092L14.7526 44.7443L32.4541 33.7416Z" fill="white"/>
<path d="M14.605 44.5976L32.6016 34.3284V31.541L14.605 41.8102V44.5976Z" fill="#C9C9C9"/>
<path d="M1.91839 37.1157L14.6045 44.5976V41.8102L1.91839 34.3284V37.1157Z" fill="#DDDDDD"/>
<path d="M15.0475 41.8102L32.749 31.541L19.7679 24.0592L1.91883 34.3284L15.0475 41.8102Z" fill="white"/>
<path d="M32.3066 29.6339L16.8178 23.7658L2.36153 36.0888L17.8504 42.1036L32.3066 29.6339Z" fill="white"/>
<path d="M14.4575 41.8102L32.4541 31.6877V29.1938L14.4575 39.463V41.8102Z" fill="#C9C9C9"/>
<path d="M1.62434 34.3284L14.6055 41.8102V39.463L1.62434 31.9812V34.3284Z" fill="#DDDDDD"/>
<path d="M14.605 39.463L32.4541 29.1938L19.473 21.712L1.62391 31.9812L14.605 39.463Z" fill="white"/>
<path d="M36.1416 29.4872L22.4229 22.1521L4.72136 33.1548L18.4401 40.3432L36.1416 29.4872Z" fill="white"/>
<path d="M15.4898 39.7564L33.3389 29.6339V26.113L15.4898 36.3822V39.7564Z" fill="#C9C9C9"/>
<path d="M2.5091 32.2746L15.4902 39.7564V36.3822L2.5091 28.9004V32.2746Z" fill="#DDDDDD"/>
<path d="M15.4898 36.3822L33.3389 26.113L20.2102 18.6312L2.50868 28.9004L15.4898 36.3822Z" fill="white"/>
<path d="M32.4541 25.5262L18.7354 18.1911L1.03386 29.0471L14.7526 36.3822L32.4541 25.5262Z" fill="white"/>
<path d="M14.605 36.5289L32.4541 26.2597V23.9125L14.605 34.1817V36.5289Z" fill="#C9C9C9"/>
<path d="M1.62434 29.0471L14.6055 36.5289V34.1817L1.62434 26.6999V29.0471Z" fill="#DDDDDD"/>
<path d="M14.605 34.1817L32.4541 23.9125L19.473 16.4307L1.62391 26.6999L14.605 34.1817Z" fill="white"/>
<path d="M14.4576 34.7685L32.3066 24.4993V21.1252L14.4576 31.2476V34.7685Z" fill="#C9C9C9"/>
<path d="M1.32936 27.2867L14.458 34.7685V31.2476L1.32936 23.7658V27.2867Z" fill="#DDDDDD"/>
<path d="M14.4576 31.2476L32.3066 21.1252L19.178 13.4966L1.32894 23.7658L14.4576 31.2476Z" fill="white"/>
<path d="M32.4541 21.4186L18.8829 14.0834L1.03386 24.9394L14.7526 32.2746L32.4541 21.4186Z" fill="white"/>
<path d="M13.7193 30.9542L31.5684 20.8318V17.8977L13.7193 28.1669V30.9542Z" fill="#C9C9C9"/>
<path d="M0.591078 23.4724L13.7197 30.9542V28.1669L0.591078 20.6851V23.4724Z" fill="#DDDDDD"/>
<path d="M13.7193 28.1669L31.5684 17.8977L18.4397 10.4159L0.590658 20.6851L13.7193 28.1669Z" fill="white"/>
<path d="M14.605 28.1669L32.4541 17.8977V15.5505L14.605 25.6729V28.1669Z" fill="#C9C9C9"/>
<path d="M1.62434 20.5384L14.6055 28.1669V25.6729L1.62434 18.1911V20.5384Z" fill="#DDDDDD"/>
<path d="M14.605 25.6729L32.4541 15.5505L19.473 7.92194L1.62391 18.1911L14.605 25.6729Z" fill="white"/>
<path d="M13.1295 25.6729L30.9785 15.5505L17.8499 7.92194L0.000814438 18.1911L13.1295 25.6729Z" fill="white"/>
<path d="M15.6378 25.9663L34.3719 17.4576L34.8145 13.6433L16.0803 22.1521L15.6378 25.9663Z" fill="#C9C9C9"/>
<path d="M3.39397 17.3109L15.6375 25.9663L16.0801 22.1521L3.689 13.4966L3.39397 17.3109Z" fill="#DDDDDD"/>
<path d="M16.0803 22.1521L34.8145 13.6433L22.4234 4.98788L3.68924 13.4966L16.0803 22.1521Z" fill="url(#paint0_linear_37_11946)"/>
<path d="M16.2277 15.6972C22.8658 20.2449 25.3735 16.5774 35.1094 13.4966L23.3083 4.25437C15.4902 8.36204 10.9173 9.82907 2.65654 5.57469L16.2277 15.6972Z" fill="white"/>
<path d="M24.3402 45.0377C25.2253 44.1575 34.6661 37.5559 34.6661 37.5559L42.0417 21.4186C44.2544 16.7241 51.1875 19.218 50.0074 25.2328C49.8599 26.1131 44.2544 37.7026 41.7467 41.0767C40.8616 42.397 28.1755 48.9986 27.8805 49.2921C26.2579 50.7591 22.8651 46.5047 24.3402 45.0377Z" fill="#464646"/>
<path d="M24.3399 45.6245L24.6349 45.4778C26.11 44.7443 29.0603 48.4118 27.4376 49.2921L27.1426 49.4388C25.6675 50.319 22.7172 46.6514 24.3399 45.6245Z" fill="white"/>
<path d="M18.7347 52.6662C19.6198 52.0794 20.0623 51.1992 20.0623 50.319C20.0623 50.0256 20.0623 49.7322 20.0623 49.2921C19.9148 48.4118 19.3248 47.6783 18.5872 47.3849C17.5546 47.0915 16.6695 46.358 16.8171 45.9179C16.8171 45.6245 17.1121 45.4778 17.8496 45.7712C19.1773 46.358 19.7673 46.358 20.7999 46.2113C21.685 46.0646 23.1601 46.358 23.6026 46.358C23.6026 46.358 23.8977 46.358 24.0452 46.2113C24.7828 45.4778 27.438 48.7052 26.5529 49.2921C25.0778 50.7591 25.2253 50.6124 24.0452 51.786C23.4551 52.5195 19.4723 55.3069 18.5872 54.8668C18.4397 54.8668 18.2922 54.7201 18.1447 54.7201C17.8496 54.7201 16.522 54.5734 16.227 53.8398L18.7347 52.6662Z" fill="#FCBE9F"/>
<path d="M56.3506 69.3903L47.9424 59.2678C40.7142 57.0673 27.8806 65.8694 27.8806 65.8694L36.2888 75.9919C36.4363 76.1386 45.7297 68.5101 56.3506 69.3903Z" fill="white"/>
</g>
<defs>
<linearGradient id="paint0_linear_37_11946" x1="31.9609" y1="-7.55871" x2="8.40728" y2="31.9631" gradientUnits="userSpaceOnUse">
<stop stop-color="#DDDDDD"/>
<stop offset="1" stop-color="white"/>
</linearGradient>
<clipPath id="clip0_37_11946">
<rect width="86" height="109" fill="white" transform="matrix(-1 0 0 1 86 0)"/>
</clipPath>
</defs>
</svg>
