<svg width="86" height="109" viewBox="0 0 86 109" fill="none" xmlns="http://www.w3.org/2000/svg">
<g clip-path="url(#clip0_37_11643)">
<path d="M21.6836 95.0633C21.6836 95.0633 65.1999 86.8479 81.7213 96.9704C98.2428 107.093 62.3972 108.56 40.7128 107.973L45.4332 99.3176C36.1399 100.198 28.4692 99.0242 19.1759 99.7577C19.3234 96.9704 19.1759 96.2369 21.6836 95.0633Z" fill="#E35B36"/>
<path d="M24.485 100.345C23.1573 102.252 17.4043 105.919 16.3718 106.359C13.569 107.826 10.1762 106.066 10.4712 104.305C10.4712 104.012 10.4712 103.719 10.4712 103.279C10.4712 102.692 18.732 97.8506 18.732 97.5572C18.8795 96.9704 18.732 96.3836 19.027 95.7968C19.4695 94.6231 24.485 94.9165 24.3375 95.9435C24.1899 97.2638 24.485 97.8506 24.78 98.4374C24.9275 98.8775 24.9275 99.611 24.78 99.9044C24.6325 100.051 24.6325 100.198 24.485 100.345Z" fill="#2F2C37"/>
<path d="M24.485 99.3176C23.1574 101.225 17.4044 104.892 16.3718 105.332C13.569 106.799 10.0287 104.892 10.4713 103.279C11.0613 100.931 18.732 96.8237 18.732 96.5303C18.8795 95.9435 18.732 95.3567 19.027 94.7698C19.4696 93.5962 24.485 93.8896 24.3375 94.9165C23.8949 97.5572 25.2226 98.2907 24.485 99.3176Z" fill="#110F14"/>
<path d="M47.2025 102.692C46.6125 104.012 46.1699 105.039 45.7274 106.213C44.8423 108.266 43.6622 108.707 41.597 109C40.1219 109.147 38.3518 109 37.6142 108.266C37.0241 107.68 37.1717 106.799 37.1717 105.919C37.1717 104.599 38.6468 103.865 39.5319 102.838C40.2694 101.812 41.8921 98.4374 42.0396 97.9973C42.1871 97.5572 42.0396 96.3836 42.0396 95.9435C42.0396 95.6501 46.0224 94.4764 46.9075 95.7968C47.2025 96.2369 47.6451 96.8237 47.9401 97.4105C48.8252 98.7308 48.9727 99.0242 48.8252 99.7577C48.5301 100.198 47.9401 101.225 47.2025 102.692Z" fill="#2F2C37"/>
<path d="M46.9069 101.371C46.3168 102.692 45.8743 104.159 45.1367 105.186C43.9566 107.24 43.5141 107.68 41.5964 107.973C40.1213 108.12 38.3512 107.973 37.6136 107.24C37.0235 106.653 37.0235 105.773 37.3186 105.039C37.7611 103.865 38.6462 102.985 39.3837 101.812C40.1213 100.785 41.7439 97.4105 41.8915 96.9704C42.039 96.5303 41.8915 95.3566 41.8915 94.9165C41.8915 94.6231 45.8743 93.4495 46.7594 94.7698C47.0544 95.2099 47.0544 95.9435 47.3494 96.5303C48.677 98.2907 48.382 98.144 46.9069 101.371Z" fill="#110F14"/>
<path d="M42.7772 68.9502C42.7772 71.4441 43.0723 75.1117 43.0723 75.1117C43.0723 75.1117 43.5148 76.432 44.5474 77.7523C47.3501 82.0067 47.4976 90.0754 47.3501 95.2099C47.2026 97.5572 41.7446 98.2907 41.3021 95.7968C41.1546 94.6231 38.4994 86.8479 38.2043 85.6743C37.7618 83.9139 35.2541 78.926 34.664 77.1655C32.8939 72.4711 30.3862 64.5491 29.7961 59.5612C29.0585 62.2019 26.2558 73.3513 26.1083 73.9381C25.8133 74.965 26.6983 81.7133 26.4033 83.9139C25.8133 87.8748 25.2232 91.3957 24.7807 95.3567C24.7807 97.4105 18.7326 97.5572 18.8801 95.3567C18.2901 91.1023 17.8476 87.5814 17.2575 83.327C17.11 82.3001 16.9625 81.1265 16.815 80.0996C16.6675 78.1925 16.9625 74.2315 16.9625 72.3244C17.11 64.2557 17.9951 60.4414 18.7326 56.4805C18.8802 55.3069 20.0603 49.8789 20.2078 48.7052C20.3553 47.5316 20.7978 45.7712 20.7978 45.7712C20.9453 44.7443 21.5354 43.2772 22.568 43.2772C23.158 43.2772 24.4856 43.2772 25.2232 43.2772C27.7309 43.1305 30.2386 44.1575 32.7464 44.5976C35.6966 45.0377 40.2695 43.8641 41.8922 47.0915C42.3347 47.9717 42.3347 50.6124 42.4822 52.0794C42.4822 54.2799 42.7772 63.0821 42.7772 68.9502Z" fill="#2A1A2F"/>
<path d="M59.5941 52.8129L46.908 51.0525C51.7759 44.1575 53.8411 37.1157 52.956 29.9273L65.4946 31.6878C66.9697 36.8223 63.872 44.5976 59.5941 52.8129Z" fill="white"/>
<path d="M12.5373 35.6487C13.5699 34.7685 21.8307 26.4065 21.8307 26.4065C21.8307 26.4065 25.0759 11.0027 27.8787 11.4428C30.8289 11.8829 32.009 17.4576 34.0742 18.6312C34.0742 18.6312 29.6488 27.7268 28.1737 30.5141C27.4361 31.8345 15.7826 40.1965 15.3401 40.4899C13.4224 41.5168 10.7672 37.2625 12.5373 35.6487Z" fill="#313131"/>
<path d="M11.9478 36.3822C13.2754 35.2086 16.6682 38.8762 14.8981 40.1965C13.4229 41.5168 10.3252 37.4092 11.9478 36.3822Z" fill="white"/>
<path d="M2.35829 41.6635C2.50581 41.6635 2.50581 41.5168 2.65332 41.5168C3.09586 41.3701 3.5384 41.0767 3.98094 40.93C4.57099 40.6366 5.16104 40.3432 5.60358 40.0498C5.60358 40.0498 7.37373 38.4361 7.52124 38.1427C7.66876 37.996 7.81627 37.8493 7.96378 37.7026C8.55383 37.2625 8.99637 37.2625 9.2914 36.5289C10.029 36.6756 11.2091 36.8223 11.7991 36.6756C12.9792 35.9421 15.782 38.8762 14.1593 40.0498C12.5367 41.2234 12.5367 41.0767 11.2091 42.1036C10.4715 42.6904 6.19363 44.5976 5.30855 44.1575C5.16104 44.1575 5.16104 44.0108 5.01352 43.8641C4.42347 43.8641 4.27596 43.7174 3.83342 43.424C2.94834 43.5707 2.80083 43.1306 2.65332 42.9839C2.50581 42.8371 2.50581 42.6904 2.65332 42.5437C2.35829 42.5437 2.21078 42.5437 2.06327 42.397C1.62073 42.2503 2.06327 41.9569 2.35829 41.6635Z" fill="#FCBE9F"/>
<path d="M5.16148 36.969C6.34158 36.969 7.66919 36.0888 8.70178 36.3822C8.99681 36.5289 9.43935 36.6756 9.73438 36.6756L7.81671 38.1427L7.6692 37.996C7.52169 37.996 7.22666 38.1427 6.78412 38.1427C5.4565 38.2894 4.42391 37.8493 4.2764 37.2625C4.12888 37.1157 4.42391 36.969 5.16148 36.969Z" fill="#FCBE9F"/>
<path d="M41.3027 41.5168C41.1552 43.1305 41.7452 45.0377 41.8928 45.6245C42.7778 51.786 20.5034 49.7322 22.2735 42.397C22.5686 41.0767 23.7487 22.8856 26.2564 16.8708C26.8464 15.5505 26.994 13.9367 28.0266 12.9098C29.9442 11.2961 51.0386 17.751 48.8259 22.4455C46.0231 28.3136 41.8928 34.9152 41.3027 41.5168Z" fill="#464646"/>
<path d="M44.8429 23.4724C45.5805 24.3526 46.318 25.0861 47.2031 25.9664C44.6954 30.8075 41.8927 36.2355 41.3026 41.6635C41.1551 43.2773 41.7451 45.1844 41.8927 45.7712C42.1877 47.825 40.1225 48.7053 37.3198 48.9987C38.6474 35.3553 40.7126 31.2476 44.8429 23.4724Z" fill="#313131"/>
<path d="M39.8277 19.6581C36.5824 23.3257 31.7145 25.9664 31.7145 25.9664C31.7145 25.9664 29.3543 16.5774 32.5995 14.3768C33.9272 13.4966 37.7625 13.4966 39.2376 14.6703C40.5652 15.5505 40.2702 17.6043 39.8277 19.6581Z" fill="#F1EDE8"/>
<path d="M39.8275 14.6703C43.3678 17.751 37.7623 22.5922 37.7623 22.5922L35.107 19.6581L34.3695 17.6043C34.3695 17.4576 35.9921 11.2961 39.8275 14.6703Z" fill="white"/>
<path d="M34.5176 12.9098L33.485 18.3378L29.9447 18.0444C29.7972 18.0444 31.2723 14.9637 34.5176 12.9098Z" fill="white"/>
<path d="M35.1072 19.5114L33.1895 21.5653L32.8945 18.3378C32.452 15.8439 34.2221 12.4697 35.2547 10.7093C35.5497 10.2692 35.8448 9.82907 36.2873 9.53567C36.7298 9.24226 37.4674 9.09556 38.0575 9.09556C38.9425 9.09556 39.8276 9.24226 40.5652 9.68237C40.8602 9.82907 41.1552 10.1225 41.3027 10.5626C41.3027 10.856 41.3027 11.1494 41.1552 11.2961C40.5652 12.9098 40.4177 13.4966 40.1226 15.2571C39.5326 18.6312 37.0249 19.3647 35.1072 19.5114Z" fill="#F2A883"/>
<path d="M40.8612 8.06864C40.8612 8.80215 41.0087 9.38896 41.1562 10.1225C41.3037 10.856 40.7137 11.7362 40.5662 12.323C40.2711 13.2032 39.6811 13.9367 39.091 14.5236C38.206 15.2571 37.1734 15.6972 36.1408 15.9906C34.9607 16.4307 33.7806 16.7241 32.453 16.7241C31.4204 16.7241 29.9452 16.8708 29.6502 15.5505C29.5027 14.9637 29.5027 14.3769 29.6502 13.9367C29.7977 13.3499 29.9452 12.7631 29.7977 12.323C29.7977 11.8829 29.6502 11.2961 29.6502 10.856C29.6502 10.4159 29.9452 9.97577 30.2403 9.38896C30.3878 8.94886 30.5353 8.36205 30.5353 7.92194C30.5353 7.62853 30.5353 7.33513 30.5353 7.18843C30.5353 7.04172 30.6828 6.74832 30.8303 6.60162C31.1253 6.16151 31.4204 5.5747 31.7154 5.13459C31.8629 4.84118 32.1579 4.40108 32.453 4.10767C32.8955 3.66756 33.4855 3.52086 34.2231 3.37416C35.5507 3.08075 37.0258 3.08075 38.206 3.66756C39.3861 4.10767 40.5662 5.28129 40.8612 6.60162C40.7137 7.04172 40.7137 7.62853 40.8612 8.06864Z" fill="#FABC9D"/>
<path d="M32.4526 1.61373C32.7476 1.61373 33.4852 1.46703 33.6327 1.32032C33.9277 1.17362 34.6653 0.293405 35.1078 0.293405C35.6978 0.293405 36.1404 0.58681 36.7304 0.440108C37.3205 0.293405 37.6155 0 38.0581 0C38.5006 0 38.9431 0.293405 39.5332 0.440108C40.2707 0.58681 41.0083 0.293405 41.4509 0.733513C41.8934 1.32032 41.5984 1.17362 42.3359 1.32032C43.221 1.46703 42.926 2.78735 43.8111 3.08075C44.5486 3.37416 44.2536 3.66756 44.4011 4.40108C44.5486 4.98789 44.9912 5.28129 45.1387 5.8681C45.1387 6.60161 45.1387 7.04172 44.8436 7.77524C44.5486 8.50875 44.9912 9.38896 44.2536 10.1225C43.9586 10.4159 43.8111 10.5626 43.6635 11.0027C43.516 12.0296 43.516 11.7362 42.631 12.323C42.1884 12.6164 42.3359 13.2032 42.0409 13.6433C41.7459 14.0834 41.3033 14.2301 41.0083 14.5236C40.8608 14.6703 40.1232 15.5505 40.2707 15.5505C39.8282 14.6703 39.5332 13.6433 39.6807 13.3499C40.1232 12.4697 40.4183 11.2961 39.3857 11.8829C38.9431 12.1763 38.7956 12.323 38.6481 12.323C38.3531 12.323 38.3531 12.1763 38.2056 11.8829C38.0581 10.856 37.6155 9.97577 37.0255 9.09556C35.6978 7.48183 33.6327 5.5747 32.1575 5.28129C31.8625 5.28129 31.5675 5.42799 31.42 5.7214L31.1249 4.40108C31.1249 2.78735 31.42 1.90713 32.4526 1.61373Z" fill="#2A1A2F"/>
<path d="M39.2386 11.8829C40.2712 10.856 41.3038 10.2692 41.7463 10.7093C42.1889 11.1494 41.7463 12.323 40.8612 13.3499C39.9762 14.3769 38.6485 14.6703 38.3535 14.5236C37.911 14.0834 38.3535 12.9098 39.2386 11.8829Z" fill="#FABC9D"/>
<path d="M14.605 55.1602L32.6016 44.891V41.5168L17.9978 48.7052L14.605 51.786V55.1602Z" fill="#C9C9C9"/>
<path d="M1.91936 47.6783L14.6055 55.1602V51.786L1.91936 44.1575V47.6783Z" fill="#DDDDDD"/>
<path d="M14.6041 51.786L32.4531 41.5168L19.3245 34.035L1.47542 44.1575L14.6041 51.786Z" fill="white"/>
<path d="M31.8633 40.7833L18.2921 33.4482L0.590553 44.4509L14.1617 51.786L31.8633 40.7833Z" fill="white"/>
<path d="M14.1616 51.1992L32.1582 41.0767V38.5828L14.1616 48.8519V51.1992Z" fill="#C9C9C9"/>
<path d="M1.62352 43.7174L14.1621 51.1992V48.8519L1.62352 41.3701V43.7174Z" fill="#DDDDDD"/>
<path d="M14.4567 48.8519L32.1582 38.5828L19.1771 31.1009L1.32801 41.3701L14.4567 48.8519Z" fill="white"/>
<path d="M16.3751 48.2651L32.6016 38.1427V34.6218L16.3751 44.891V48.2651Z" fill="#C9C9C9"/>
<path d="M1.91874 40.7833L16.375 48.2651V44.891L1.91874 37.4091V40.7833Z" fill="#DDDDDD"/>
<path d="M15.6373 44.891L33.4863 34.6218L20.5052 27.14L2.65614 37.4091L15.6373 44.891Z" fill="white"/>
<path d="M32.4531 33.7416L18.7344 26.5532L1.03289 37.4092L14.7516 44.7443L32.4531 33.7416Z" fill="white"/>
<path d="M14.603 44.5976L32.5996 34.3284V31.541L14.603 41.8102V44.5976Z" fill="#C9C9C9"/>
<path d="M1.91741 37.1157L14.6035 44.5976V41.8102L1.91741 34.3284V37.1157Z" fill="#DDDDDD"/>
<path d="M15.0465 41.8102L32.748 31.541L19.7669 24.0592L1.91786 34.3284L15.0465 41.8102Z" fill="white"/>
<path d="M32.3066 29.6339L16.8178 23.7658L2.36153 36.0888L17.8504 42.1036L32.3066 29.6339Z" fill="white"/>
<path d="M14.4566 41.8102L32.4531 31.6877V29.1938L14.4566 39.463V41.8102Z" fill="#C9C9C9"/>
<path d="M1.62238 34.3284L14.6035 41.8102V39.463L1.62238 31.9812V34.3284Z" fill="#DDDDDD"/>
<path d="M14.6041 39.463L32.4531 29.1938L19.472 21.712L1.62293 31.9812L14.6041 39.463Z" fill="white"/>
<path d="M36.1406 29.4872L22.4219 22.1521L4.72039 33.1548L18.4391 40.3432L36.1406 29.4872Z" fill="white"/>
<path d="M15.4888 39.7564L33.3379 29.6339V26.113L15.4888 36.3822V39.7564Z" fill="#C9C9C9"/>
<path d="M2.50715 32.2746L15.4883 39.7564V36.3822L2.50715 28.9004V32.2746Z" fill="#DDDDDD"/>
<path d="M15.4888 36.3822L33.3379 26.113L20.2092 18.6312L2.50771 28.9004L15.4888 36.3822Z" fill="white"/>
<path d="M32.4531 25.5262L18.7344 18.1911L1.03289 29.0471L14.7516 36.3822L32.4531 25.5262Z" fill="white"/>
<path d="M14.6041 36.5289L32.4531 26.2597V23.9125L14.6041 34.1817V36.5289Z" fill="#C9C9C9"/>
<path d="M1.62238 29.0471L14.6035 36.5289V34.1817L1.62238 26.6999V29.0471Z" fill="#DDDDDD"/>
<path d="M14.6041 34.1817L32.4531 23.9125L19.472 16.4307L1.62293 26.6999L14.6041 34.1817Z" fill="white"/>
<path d="M14.4556 34.7685L32.3047 24.4993V21.1252L14.4556 31.2476V34.7685Z" fill="#C9C9C9"/>
<path d="M1.32643 27.2867L14.4551 34.7685V31.2476L1.32643 23.7658V27.2867Z" fill="#DDDDDD"/>
<path d="M14.4556 31.2476L32.3047 21.1252L19.176 13.4966L1.32699 23.7658L14.4556 31.2476Z" fill="white"/>
<path d="M32.4531 21.4186L18.8819 14.0834L1.03289 24.9394L14.7516 32.2746L32.4531 21.4186Z" fill="white"/>
<path d="M13.7193 30.9542L31.5684 20.8318V17.8977L13.7193 28.1669V30.9542Z" fill="#C9C9C9"/>
<path d="M0.590101 23.4724L13.7188 30.9542V28.1669L0.590101 20.6851V23.4724Z" fill="#DDDDDD"/>
<path d="M13.7193 28.1669L31.5684 17.8977L18.4397 10.4159L0.590658 20.6851L13.7193 28.1669Z" fill="white"/>
<path d="M14.6041 28.1669L32.4531 17.8977V15.5505L14.6041 25.6729V28.1669Z" fill="#C9C9C9"/>
<path d="M1.62238 20.5384L14.6035 28.1669V25.6729L1.62238 18.1911V20.5384Z" fill="#DDDDDD"/>
<path d="M14.6041 25.6729L32.4531 15.5505L19.472 7.92194L1.62293 18.1911L14.6041 25.6729Z" fill="white"/>
<path d="M13.1295 25.6729L30.9785 15.5505L17.8499 7.92194L0.000814438 18.1911L13.1295 25.6729Z" fill="white"/>
<path d="M15.6358 25.9663L34.37 17.4576L34.8125 13.6433L16.0784 22.1521L15.6358 25.9663Z" fill="#C9C9C9"/>
<path d="M3.39202 17.3109L15.6356 25.9663L16.0781 22.1521L3.68705 13.4966L3.39202 17.3109Z" fill="#DDDDDD"/>
<path d="M16.0784 22.1521L34.8125 13.6433L22.4214 4.98788L3.68729 13.4966L16.0784 22.1521Z" fill="url(#paint0_linear_37_11643)"/>
<path d="M16.2258 15.6972C22.8639 20.2449 25.3716 16.5774 35.1074 13.4966L23.3064 4.25437C15.4882 8.36204 10.9153 9.82907 2.65459 5.57469L16.2258 15.6972Z" fill="white"/>
<path d="M24.3392 45.0377C25.2243 44.1575 34.6651 37.5559 34.6651 37.5559L42.0408 21.4186C44.2535 16.7241 51.1866 19.218 50.0065 25.2328C49.859 26.1131 44.2535 37.7026 41.7457 41.0767C40.8607 42.397 28.1746 48.9986 27.8795 49.2921C26.2569 50.7591 22.8641 46.5047 24.3392 45.0377Z" fill="#464646"/>
<path d="M24.3389 45.6245L24.6339 45.4778C26.109 44.7443 29.0593 48.4118 27.4367 49.2921L27.1416 49.4388C25.6665 50.319 22.7162 46.6514 24.3389 45.6245Z" fill="white"/>
<path d="M18.7337 52.6662C19.6188 52.0794 20.0614 51.1992 20.0614 50.319C20.0614 50.0256 20.0614 49.7322 20.0614 49.2921C19.9138 48.4118 19.3238 47.6783 18.5862 47.3849C17.5536 47.0915 16.6686 46.358 16.8161 45.9179C16.8161 45.6245 17.1111 45.4778 17.8487 45.7712C19.1763 46.358 19.7663 46.358 20.7989 46.2113C21.684 46.0646 23.1591 46.358 23.6017 46.358C23.6017 46.358 23.8967 46.358 24.0442 46.2113C24.7818 45.4778 27.437 48.7052 26.5519 49.2921C25.0768 50.7591 25.2243 50.6124 24.0442 51.786C23.4542 52.5195 19.4713 55.3069 18.5862 54.8668C18.4387 54.8668 18.2912 54.7201 18.1437 54.7201C17.8487 54.7201 16.5211 54.5734 16.226 53.8398L18.7337 52.6662Z" fill="#FCBE9F"/>
<path d="M56.3496 69.3903L47.9414 59.2678C40.7132 57.0673 27.8796 65.8694 27.8796 65.8694L36.2879 75.9919C36.4354 76.1386 45.7287 68.5101 56.3496 69.3903Z" fill="white"/>
</g>
<defs>
<linearGradient id="paint0_linear_37_11643" x1="31.959" y1="-7.55871" x2="8.40532" y2="31.9631" gradientUnits="userSpaceOnUse">
<stop stop-color="#DDDDDD"/>
<stop offset="1" stop-color="white"/>
</linearGradient>
<clipPath id="clip0_37_11643">
<rect width="86" height="109" fill="white" transform="matrix(-1 0 0 1 86 0)"/>
</clipPath>
</defs>
</svg>
