<svg width="59" height="58" viewBox="0 0 59 58" fill="none" xmlns="http://www.w3.org/2000/svg">
<rect width="59" height="58" fill="#CFCFCF"/>
<rect id="Rectangle 963" x="-3521" y="-10742" width="31763" height="16935" stroke="black" stroke-width="50"/>
<g id="Product_inform_position" clip-path="url(#clip0_1_2)">
<rect width="1920" height="1568" transform="translate(-567 -437)" fill="white"/>
<g id="con01">
<rect id="Rectangle 1019" x="-246.5" y="-193.5" width="1279" height="472" rx="19.5" fill="#FBFBFB" stroke="#DFDFDF"/>
<g id="con01_2">
<circle id="Ellipse 48" cx="29" cy="29" r="92.5" fill="white" stroke="#D2D2D2"/>
<g id="position_inform_icon01">
<g id="XMLID_19612_">
<g id="XMLID_19613_">
<g id="XMLID_00000078756610637133329640000011516483891316651696_">
<g id="XMLID_19615_">
<path id="XMLID_19616_" d="M19.6004 7.39981V9.4998H11.9004V7.39981C11.9004 6.79981 12.4004 6.2998 13.0004 6.2998H18.4004C19.1004 6.2998 19.6004 6.79981 19.6004 7.39981Z" fill="#D7DEED"/>
</g>
<g id="XMLID_19617_">
<path id="XMLID_19618_" d="M10.8004 14.9996H6.40039V11.5996C6.40039 10.4996 7.30039 9.59961 8.40039 9.59961H11.8004H19.5004H22.9004C24.0004 9.59961 24.9004 10.4996 24.9004 11.5996V14.9996H20.7004H10.8004Z" fill="#5B6072"/>
</g>
<g id="XMLID_19619_">
<path id="XMLID_19620_" d="M10.8004 15H20.6004H24.9004V20.6C24.9004 21.7 24.0004 22.6 22.9004 22.6H8.40039C7.30039 22.6 6.40039 21.7 6.40039 20.6V15H10.8004Z" fill="#707487"/>
</g>
<g id="XMLID_19621_">
<path id="XMLID_19622_" d="M48.8 38.7998L56.2 46.0998C56.7 46.5998 56.9 47.0998 56.9 47.6998C56.9 48.2998 56.7 48.8998 56.2 49.2998C55.3 50.1998 53.8 50.1998 52.9 49.2998L45.5 42.0998C46.7 41.1998 47.9 40.0998 48.8 38.7998Z" fill="#747371"/>
</g>
<g id="XMLID_19623_">
<path id="XMLID_19624_" d="M41.8996 9.9998V11.2998H36.4996C34.5996 11.2998 33.0996 9.6998 33.0996 7.7998V1.2998C36.4996 4.6998 38.3996 6.5998 41.8996 9.9998Z" fill="#AFB9D2"/>
</g>
<g id="XMLID_19625_">
<path id="XMLID_19626_" d="M28.0004 32.6998C28.0004 38.8998 33.1004 43.8998 39.3004 43.8998C40.2004 43.8998 41.0004 43.7998 41.9004 43.5998V52.8998C41.9004 54.7998 40.4004 56.2998 38.5004 56.2998H4.8004C2.9004 56.2998 1.40039 54.7998 1.40039 52.8998V4.6998C1.40039 2.7998 2.9004 1.2998 4.8004 1.2998H33.0004V7.7998C33.0004 9.6998 34.5004 11.2998 36.4004 11.2998H41.8004V21.7998C41.0004 21.5998 40.1004 21.4998 39.2004 21.4998C33.1004 21.4998 28.0004 26.4998 28.0004 32.6998ZM25.1004 20.5998V14.9998V11.5998C25.1004 10.4998 24.2004 9.59981 23.1004 9.59981H19.7004V7.4998C19.7004 6.8998 19.2004 6.39981 18.6004 6.39981H13.1004C12.5004 6.39981 12.0004 6.8998 12.0004 7.4998V9.59981H8.60039C7.50039 9.59981 6.60039 10.4998 6.60039 11.5998V14.9998V20.5998C6.60039 21.6998 7.50039 22.5998 8.60039 22.5998H23.2004C24.2004 22.5998 25.1004 21.6998 25.1004 20.5998Z" fill="#D7DEED"/>
</g>
<g id="XMLID_19629_">
<path id="XMLID_19630_" d="M45.4996 32.7C45.4996 33.9 45.0996 35.1 44.4996 36.1C43.9996 36.8 43.3996 37.4 42.6996 37.9C42.0996 38.3 41.4996 38.6 40.7996 38.7C40.2996 38.8 39.8996 38.9 39.3996 38.9C35.9996 38.9 33.0996 36.1 33.0996 32.7C33.0996 29.3 35.8996 26.5 39.3996 26.5C39.8996 26.5 40.3996 26.6 40.7996 26.7C43.4996 27.3 45.4996 29.8 45.4996 32.7Z" fill="#C7ECEE"/>
</g>
<g id="XMLID_19631_">
<path id="XMLID_19632_" d="M41.8996 21.8C46.8996 23 50.5996 27.4 50.5996 32.7C50.5996 35 49.8996 37.1 48.7996 38.8C47.8996 40.1 46.7996 41.2 45.4996 42.1C44.3996 42.8 43.1996 43.3 41.9996 43.6C41.1996 43.8 40.2996 43.9 39.3996 43.9C33.0996 43.9 28.0996 38.9 28.0996 32.7C28.0996 26.5 33.1996 21.5 39.3996 21.5C40.1996 21.5 41.0996 21.6 41.8996 21.8ZM44.4996 36.1C45.0996 35.1 45.4996 34 45.4996 32.7C45.4996 29.8 43.4996 27.3 40.5996 26.7C40.0996 26.6 39.6996 26.5 39.1996 26.5C35.7996 26.5 32.8996 29.3 32.8996 32.7C32.8996 36.1 35.6996 38.9 39.1996 38.9C39.6996 38.9 40.1996 38.8 40.5996 38.7C41.2996 38.5 41.9996 38.2 42.4996 37.9C43.3996 37.4 43.9996 36.8 44.4996 36.1Z" fill="#DFF9FB"/>
</g>
</g>
<g id="XMLID_19614_">
<g id="XMLID_19635_">
<path id="XMLID_19636_" d="M41.9008 12.6002H36.5008C35.2008 12.6002 34.1008 12.1002 33.2008 11.2002C32.3008 10.3002 31.8008 9.1002 31.8008 7.9002V1.40019C31.8008 0.700192 32.4008 0.200195 33.0008 0.200195C33.7008 0.200195 34.2008 0.800191 34.2008 1.50019V8.00019C34.2008 8.60019 34.4008 9.1002 34.8008 9.6002C35.2008 10.0002 35.8008 10.2002 36.4008 10.2002H41.8008C42.5008 10.2002 43.1008 10.8002 43.1008 11.5002C43.2008 12.0002 42.6008 12.6002 41.9008 12.6002Z" fill="black"/>
</g>
<g id="XMLID_19637_">
<path id="XMLID_19638_" d="M19.6996 45.1H6.39961C5.69961 45.1 5.09961 44.5 5.09961 43.8C5.09961 43.1 5.69961 42.5 6.39961 42.5H19.6996C20.3996 42.5 20.9996 43.1 20.9996 43.8C20.8996 44.5 20.3996 45.1 19.6996 45.1Z" fill="black"/>
</g>
<g id="XMLID_19639_">
<path id="XMLID_19640_" d="M17.8992 41.3002H11.4992C10.7992 41.3002 10.1992 40.7002 10.1992 40.0002C10.1992 39.3002 10.7992 38.7002 11.4992 38.7002H17.8992C18.5992 38.7002 19.1992 39.3002 19.1992 40.0002C19.1992 40.7002 18.4992 41.3002 17.8992 41.3002Z" fill="black"/>
</g>
<g id="XMLID_19641_">
<path id="XMLID_19642_" d="M13.3992 37.6H6.49922C5.79922 37.6 5.19922 37 5.19922 36.3C5.19922 35.6 5.79922 35 6.49922 35H13.3992C14.0992 35 14.6992 35.6 14.6992 36.3C14.6992 37 14.0992 37.6 13.3992 37.6Z" fill="black"/>
</g>
<g id="XMLID_19643_">
<path id="XMLID_19644_" d="M13.3992 33.8002H6.49922C5.79922 33.8002 5.19922 33.2002 5.19922 32.5002C5.19922 31.8002 5.79922 31.2002 6.49922 31.2002H13.3992C14.0992 31.2002 14.6992 31.8002 14.6992 32.5002C14.6992 33.2002 14.0992 33.8002 13.3992 33.8002Z" fill="black"/>
</g>
<g id="XMLID_19645_">
<path id="XMLID_19646_" d="M31.7992 48.8002H6.49922C5.79922 48.8002 5.19922 48.2002 5.19922 47.5002C5.19922 46.8002 5.79922 46.2002 6.49922 46.2002H31.7992C32.4992 46.2002 33.0992 46.8002 33.0992 47.5002C33.0992 48.2002 32.4992 48.8002 31.7992 48.8002Z" fill="black"/>
</g>
<g id="XMLID_19647_">
<path id="XMLID_19648_" d="M23.0992 23.8002H8.49922C6.69922 23.8002 5.19922 22.3002 5.19922 20.5002V11.5002C5.19922 9.7002 6.69922 8.2002 8.49922 8.2002H11.8992C12.5992 8.2002 13.1992 8.8002 13.1992 9.5002C13.1992 10.2002 12.5992 10.8002 11.8992 10.8002H8.49922C8.09922 10.8002 7.69922 11.1002 7.69922 11.6002V20.6002C7.69922 21.0002 7.99922 21.4002 8.49922 21.4002H23.0992C23.4992 21.4002 23.8992 21.1002 23.8992 20.6002V11.6002C23.8992 11.2002 23.5992 10.8002 23.0992 10.8002H19.6992C18.9992 10.8002 18.3992 10.2002 18.3992 9.5002C18.3992 8.8002 18.9992 8.2002 19.6992 8.2002H23.0992C24.8992 8.2002 26.3992 9.7002 26.3992 11.5002V20.5002C26.3992 22.3002 24.8992 23.8002 23.0992 23.8002Z" fill="black"/>
</g>
<g id="XMLID_19649_">
<path id="XMLID_19650_" d="M19.5996 10.8H11.8996C11.1996 10.8 10.5996 10.2 10.5996 9.5V7.40001C10.5996 6.10001 11.6996 5 12.9996 5H18.3996C19.6996 5 20.7996 6.10001 20.7996 7.40001V9.5C20.8996 10.2 20.2996 10.8 19.5996 10.8ZM13.2996 8.3H18.4996V7.5H13.2996V8.3Z" fill="black"/>
</g>
<g id="XMLID_19653_">
<path id="XMLID_19654_" d="M25.0992 16.1996H6.49922C5.79922 16.1996 5.19922 15.5996 5.19922 14.8996C5.19922 14.1996 5.79922 13.5996 6.49922 13.5996H25.0992C25.7992 13.5996 26.3992 14.1996 26.3992 14.8996C26.3992 15.6996 25.7992 16.1996 25.0992 16.1996Z" fill="black"/>
</g>
<g id="XMLID_19655_">
<path id="XMLID_19656_" d="M20.7004 18.3C20.0004 18.3 19.4004 17.7 19.4004 17V13.8C19.4004 13.1 20.0004 12.5 20.7004 12.5C21.4004 12.5 22.0004 13.1 22.0004 13.8V17.1C22.0004 17.7 21.5004 18.3 20.7004 18.3Z" fill="black"/>
</g>
<g id="XMLID_19657_">
<path id="XMLID_19658_" d="M10.8 18.3C10.1 18.3 9.5 17.7 9.5 17V13.8C9.5 13.1 10.1 12.5 10.8 12.5C11.5 12.5 12 13.1 12 13.8V17.1C12.1 17.7 11.5 18.3 10.8 18.3Z" fill="black"/>
</g>
<g id="XMLID_19659_">
<path id="XMLID_19660_" d="M54.4996 51.2998C53.5996 51.2998 52.6996 50.9998 51.9996 50.2998L44.5996 42.9998C44.0996 42.4998 44.0996 41.6998 44.5996 41.1998C45.0996 40.6998 45.8996 40.6998 46.3996 41.1998L53.7996 48.4998C54.1996 48.8998 54.8996 48.8998 55.2996 48.4998C55.4996 48.2998 55.5996 47.9998 55.5996 47.6998C55.5996 47.3998 55.4996 47.0998 55.2996 46.8998L47.8996 39.5998C47.3996 39.0998 47.3996 38.2998 47.8996 37.7998C48.3996 37.2998 49.1996 37.2998 49.6996 37.7998L57.0996 45.0998C57.7996 45.7998 58.0996 46.6998 58.0996 47.5998C58.0996 48.5998 57.6996 49.3998 57.0996 50.0998C56.3996 50.9998 55.3996 51.2998 54.4996 51.2998Z" fill="black"/>
</g>
<g id="XMLID_19661_">
<path id="XMLID_19662_" d="M38.4 57.6H4.8C2.2 57.6 0 55.5 0 52.9V4.7C0 2.1 2.1 0 4.8 0H33C33.3 0 33.6 0.100002 33.9 0.400002L42.7 9.10001C42.9 9.30001 43.1 9.7 43.1 10V21.8C43.1 22.5 42.5 23.1 41.8 23.1C41.1 23.1 40.5 22.5 40.5 21.8V10.5L32.4 2.5H4.8C3.6 2.5 2.59999 3.5 2.59999 4.7V52.8C2.59999 54 3.6 55 4.8 55H38.3C39.5 55 40.5 54 40.5 52.8V43.5C40.5 42.8 41.1 42.2 41.8 42.2C42.5 42.2 43.1 42.8 43.1 43.5V52.8C43.2 55.4 41 57.6 38.4 57.6Z" fill="black"/>
</g>
<g id="XMLID_19663_">
<path id="XMLID_19664_" d="M39.3008 45.0998C32.3008 45.0998 26.8008 39.4998 26.8008 32.6998C26.8008 25.7998 32.5008 20.2998 39.3008 20.2998C40.3008 20.2998 41.2008 20.3998 42.2008 20.5998C44.9008 21.1998 47.4008 22.7998 49.1008 24.8998C50.9008 27.0998 51.8008 29.8998 51.8008 32.6998C51.8008 35.0998 51.1008 37.4998 49.8008 39.4998C48.8008 40.9998 47.6008 42.1998 46.2008 43.0998C45.0008 43.8998 43.7008 44.3998 42.3008 44.7998C41.3008 44.9998 40.3008 45.0998 39.3008 45.0998ZM39.3008 22.7998C33.7008 22.7998 29.3008 27.2998 29.3008 32.6998C29.3008 38.1998 33.9008 42.5998 39.3008 42.5998C40.1008 42.5998 40.8008 42.4998 41.6008 42.2998C42.7008 41.9998 43.8008 41.5998 44.7008 40.9998C45.9008 40.2998 46.9008 39.1998 47.6008 38.0998C48.7008 36.4998 49.2008 34.5998 49.2008 32.6998C49.2008 28.0998 46.1008 24.0998 41.4008 22.9998C40.9008 22.8998 40.1008 22.7998 39.3008 22.7998Z" fill="black"/>
</g>
<g id="XMLID_19667_">
<path id="XMLID_19668_" d="M39.3008 40.0998C35.2008 40.0998 31.8008 36.7998 31.8008 32.6998C31.8008 28.5998 35.1008 25.2998 39.3008 25.2998C39.9008 25.2998 40.5008 25.3998 41.0008 25.4998C44.4008 26.2998 46.8008 29.2998 46.8008 32.6998C46.8008 34.1998 46.4008 35.5998 45.6008 36.7998C45.0008 37.6998 44.3008 38.3998 43.4008 38.9998C42.7008 39.4998 41.9008 39.7998 41.1008 39.9998C40.5008 40.0998 39.9008 40.0998 39.3008 40.0998ZM39.3008 27.7998C36.6008 27.7998 34.3008 29.9998 34.3008 32.6998C34.3008 35.3998 36.5008 37.5998 39.3008 37.5998C39.7008 37.5998 40.1008 37.5998 40.4008 37.4998C41.0008 37.3998 41.5008 37.0998 41.9008 36.7998C42.5008 36.3998 43.0008 35.8998 43.3008 35.3998C43.8008 34.5998 44.1008 33.6998 44.1008 32.6998C44.1008 30.3998 42.5008 28.3998 40.3008 27.8998C40.1008 27.7998 39.7008 27.7998 39.3008 27.7998Z" fill="black"/>
</g>
</g>
</g>
</g>
</g>
</g>
</g>
</g>
<defs>
<clipPath id="clip0_1_2">
<rect width="1920" height="1568" fill="white" transform="translate(-567 -437)"/>
</clipPath>
</defs>
</svg>
