<svg width="59" height="61" viewBox="0 0 59 61" fill="none" xmlns="http://www.w3.org/2000/svg">
<path d="M23.9758 22.8002L22.9758 23.9002L22.6758 24.1002L22.2758 24.6002C18.5758 25.0002 16.8758 26.3002 16.6758 27.5002C16.5758 28.1002 16.8758 28.7002 17.4758 29.3002L11.1758 35.5002L8.57574 38.1002V38.2002L8.07574 38.7002L1.17578 31.9002L16.9758 16.2002L23.9758 22.8002ZM8.47577 32.1002C8.57577 32.0002 8.57577 31.8002 8.47577 31.7002C8.37577 31.6002 8.17574 31.6002 8.07574 31.7002C7.97574 31.8002 7.97574 32.0002 8.07574 32.1002C8.17574 32.2002 8.37577 32.2002 8.47577 32.1002Z" fill="#95AFC0"/>
<path d="M57.475 30.4998L50.575 37.2998L49.275 35.9998L46.675 33.3998L38.775 25.4998L35.375 22.0998L35.075 21.7998L34.875 21.5998L41.775 14.7998L57.475 30.4998ZM50.775 30.5998C50.875 30.4998 50.875 30.2998 50.775 30.1998C50.675 30.0998 50.475 30.0998 50.375 30.1998C50.275 30.2998 50.275 30.4998 50.375 30.5998C50.475 30.6998 50.675 30.6998 50.775 30.5998Z" fill="#707487"/>
<path d="M35.2762 51.4998C35.4762 51.6998 35.6762 51.8998 35.7762 51.8998L29.6762 58.0998C29.1762 58.5998 28.4762 58.8998 27.7762 58.8998C27.0762 58.8998 26.3762 58.5998 25.8762 58.0998C24.9762 57.1998 24.7762 55.7998 25.3762 54.7998C25.6762 54.6998 25.8762 54.4998 26.0762 54.2998L26.1762 54.1998C27.2762 53.0998 27.2762 51.4998 26.2762 50.2998L29.0762 53.0998C29.5762 53.5998 30.2762 53.8998 30.9762 53.8998C31.6762 53.8998 32.3762 53.5998 32.9762 53.0998C33.9762 51.9998 34.0762 50.3998 32.9762 49.2998L35.2762 51.4998Z" fill="#EABD8C"/>
<path d="M24.1754 54.9998L25.1754 54.7998L22.8754 56.9998C22.3754 57.4998 21.6754 57.7998 20.9754 57.7998C20.2754 57.7998 19.5754 57.4998 18.9754 56.9998C17.9754 55.8998 17.8754 54.2998 18.9754 53.1998L16.7754 55.3998C16.2754 55.8998 15.5754 56.1998 14.8754 56.1998C14.1754 56.1998 13.4754 55.8998 12.9754 55.3998C11.8754 54.2998 11.8754 52.6998 12.9754 51.5998L10.3754 54.1998C9.27535 55.2998 7.57539 55.2998 6.47539 54.1998C5.37539 53.0998 5.37539 51.3998 6.47539 50.2998L12.6754 44.2998L19.7754 51.2998L22.5754 54.1998C22.6754 54.6998 23.3754 54.9998 24.1754 54.9998Z" fill="#EABD8C"/>
<path d="M49.2754 35.9003L48.2754 39.6003L43.3754 44.3003L27.7754 28.9003C24.4754 29.8003 20.5754 31.1003 17.9754 29.7003C16.8754 29.1003 16.3754 28.3003 16.4754 27.5003C16.6754 26.3003 18.2754 25.1003 22.0754 24.7003C22.4754 24.6003 22.8754 24.6003 23.3754 24.5003C23.4754 24.5003 23.5754 24.5003 23.6754 24.5003C26.9754 24.4003 27.7754 19.5003 33.7754 22.5003L34.8754 21.9003L38.5754 25.6003L46.4754 33.4003L49.2754 35.9003Z" fill="#EABD8C"/>
<path d="M18.0765 29.6994C20.6765 31.0994 24.4765 29.7994 27.8765 28.8994L43.4766 44.2994L45.6766 46.3994C46.7766 47.4994 46.7766 49.1994 45.6766 50.2994C44.5766 51.3994 42.8765 51.3994 41.7766 50.2994L39.1766 47.6994C40.2766 48.7994 40.2766 50.3995 39.1766 51.4995C38.6766 51.9995 37.9766 52.2994 37.2766 52.2994C36.5765 52.2994 35.8765 52.0995 35.3765 51.4995L33.1766 49.2994C34.2766 50.3994 34.1766 51.9994 33.1766 53.0994C32.5766 53.5994 31.8766 53.8994 31.1766 53.8994C30.4766 53.8994 29.7766 53.5994 29.2766 53.0994L26.4766 50.2994C27.4766 51.3994 27.4765 53.0994 26.3765 54.1994L26.2766 54.2994C26.1765 54.3994 26.0766 54.4995 25.9766 54.4995C25.8766 54.5995 25.6765 54.6994 25.5765 54.6994L25.3765 54.7994C24.3765 55.1994 23.2766 54.8994 22.4766 54.1994L19.6766 51.2994L12.5765 44.2994L9.97656 41.6994L8.97656 38.0994L17.7766 29.2994C17.5766 29.3994 17.8765 29.5994 18.0765 29.6994Z" fill="#FFD8A8"/>
<path d="M20.8758 58.9998C19.8758 58.9998 18.8758 58.5998 18.0758 57.8998C18.0758 57.8998 18.0758 57.8998 17.9758 57.7998C17.6758 57.3998 17.3758 56.9998 17.1758 56.5998C16.4758 57.0998 15.6758 57.3998 14.7758 57.3998C13.6758 57.3998 12.6758 56.9998 11.9758 56.1998C11.5758 55.7998 11.2758 55.3998 11.0758 54.8998C9.47579 56.3998 6.97578 56.3998 5.37578 54.8998C3.77578 53.2998 3.77578 50.7998 5.37578 49.2998L11.5758 43.2998C12.0758 42.7998 12.8758 42.7998 13.3758 43.2998C13.8758 43.7998 13.8758 44.5998 13.3758 45.0998L7.17583 51.0998C6.57583 51.6998 6.57583 52.5998 7.17583 53.1998C7.77583 53.7998 8.67581 53.7998 9.27581 53.1998L11.8758 50.5998C12.3758 50.0998 13.1758 50.0998 13.6758 50.5998C14.1758 51.0998 14.1758 51.8998 13.6758 52.3998C13.0758 52.9998 13.0758 53.8998 13.6758 54.3998C13.9758 54.6998 14.2758 54.7998 14.7758 54.7998C15.2758 54.7998 15.5758 54.5998 15.8758 54.3998L18.0758 52.1998C18.5758 51.6998 19.3758 51.6998 19.8758 52.1998C20.3758 52.6998 20.3758 53.4998 19.8758 53.9998C19.2758 54.5998 19.3758 55.4998 19.8758 55.9998C20.1758 56.2998 20.5758 56.3998 20.9758 56.3998C21.2758 56.3998 21.6758 56.2998 21.9758 55.9998L22.3758 55.6998C22.0758 55.4998 21.6758 55.2998 21.4758 55.0998C20.9758 54.5998 20.8758 53.8998 21.3758 53.2998C21.8758 52.7998 22.5758 52.6998 23.1758 53.1998C23.6758 53.5998 24.2758 53.7998 24.7758 53.5998C25.3758 53.3998 25.9758 53.5998 26.2758 54.0998C26.5758 54.5998 26.4758 55.1998 26.0758 55.6998L23.7758 57.8998C22.8758 58.5998 21.9758 58.9998 20.8758 58.9998Z" fill="black"/>
<path d="M27.7746 60.0996C26.6746 60.0996 25.6746 59.6996 24.9746 58.8996C23.6746 57.5996 23.4746 55.5996 24.2746 54.0996C24.4746 53.7996 24.6746 53.5996 24.9746 53.4996C24.9746 53.4996 25.0745 53.4996 25.0745 53.3996C25.1745 53.3996 25.1746 53.2996 25.2746 53.2996C25.7746 52.7996 26.5745 52.8996 27.0745 53.3996C27.5745 53.8996 27.4746 54.6996 26.9746 55.1996C26.8746 55.2996 26.7745 55.3996 26.5745 55.4996C26.4745 55.4996 26.4745 55.5996 26.3745 55.5996C26.1745 56.0996 26.3746 56.6996 26.7746 57.0996C27.0746 57.3996 27.4745 57.4996 27.8745 57.4996C28.2745 57.4996 28.6746 57.2996 28.9746 57.0996L34.2746 51.8996C34.1746 51.4996 34.2745 50.9996 34.5745 50.5996C35.0745 50.0996 35.8745 50.0996 36.3745 50.5996C36.4745 50.6996 36.5745 50.7996 36.5745 50.7996C36.8745 50.9996 37.1746 51.2996 37.1746 51.6996C37.2746 52.0996 37.0745 52.4996 36.8745 52.7996L30.7746 58.8996C29.7746 59.6996 28.7746 60.0996 27.7746 60.0996Z" fill="black"/>
<path d="M24.175 56.2004C23.075 56.2004 22.075 55.8004 21.375 55.0004L18.575 52.1004L8.87497 42.5004C8.67497 42.3004 8.57498 42.2004 8.57498 42.0004L7.475 38.3004C7.375 37.9004 7.47499 37.4004 7.77499 37.1004L16.575 28.4004C17.075 27.9004 17.875 27.9004 18.375 28.4004C18.475 28.5004 18.575 28.5004 18.575 28.5004C19.275 28.7004 19.575 29.4004 19.375 30.1004C19.175 30.8004 18.475 31.1004 17.775 30.9004H17.675L10.075 38.4004L10.875 41.1004L20.375 50.5004L23.175 53.4004C23.475 53.7004 23.775 53.8004 24.175 53.8004L24.875 53.7004C24.975 53.6004 25.175 53.6004 25.275 53.5004H25.375C25.975 52.9004 25.975 52.0004 25.375 51.3004C24.975 50.8004 24.975 50.0004 25.475 49.6004C25.975 49.1004 26.775 49.2004 27.175 49.6004L29.975 52.4004C30.375 52.8004 30.775 52.8004 30.975 52.8004C31.375 52.8004 31.775 52.6004 32.075 52.4004C32.575 51.9004 32.675 51.0004 32.075 50.4004C31.875 50.2004 31.675 49.8004 31.675 49.5004C31.675 49.2004 31.775 48.9004 32.075 48.6004C32.575 48.1004 33.375 48.1004 33.875 48.6004L36.075 50.8004C36.375 51.1004 36.675 51.2004 37.175 51.2004C37.575 51.2004 37.975 51.0004 38.275 50.8004C38.875 50.2004 38.875 49.3004 38.275 48.8004C37.775 48.3004 37.775 47.5004 38.275 47.0004C38.775 46.5004 39.575 46.5004 40.075 47.0004L42.675 49.6004C43.275 50.2004 44.175 50.2004 44.775 49.6004C45.375 49.0004 45.375 48.1004 44.775 47.5004L42.575 45.4004C42.075 44.9004 42.075 44.1004 42.575 43.6004C43.075 43.1004 43.875 43.1004 44.375 43.6004L46.575 45.7004C48.175 47.3004 48.175 49.8004 46.575 51.3004C44.975 52.9004 42.475 52.9004 40.875 51.3004C40.675 51.8004 40.375 52.2004 39.975 52.6004C39.275 53.3004 38.275 53.8004 37.175 53.8004C36.275 53.8004 35.375 53.5004 34.775 53.0004C34.575 53.4004 34.375 53.8004 33.975 54.2004C33.975 54.2004 33.975 54.3004 33.875 54.3004C33.075 55.0004 32.075 55.4004 31.075 55.4004C29.975 55.4004 29.075 55.0004 28.275 54.2004L27.975 53.9004C27.775 54.4004 27.475 54.8004 27.075 55.2004L26.975 55.3004C26.675 55.6004 26.275 55.8004 25.875 56.0004H25.575C25.475 56.0004 25.375 56.1004 25.375 56.1004L24.375 56.3004C24.375 56.2004 24.275 56.2004 24.175 56.2004Z" fill="black"/>
<path d="M22.0741 25.8999C21.6741 25.8999 21.2741 25.6999 20.9741 25.2999C20.6741 24.7999 20.7741 24.2999 21.0741 23.8999L21.4741 23.3999C21.4741 23.3999 21.4741 23.2999 21.5741 23.2999L21.8741 22.9999C22.3741 22.4999 23.0741 22.4999 23.5741 22.8999L24.2741 23.4999C24.6741 23.7999 24.7741 24.2999 24.6741 24.7999C24.5741 25.2999 24.1741 25.5998 23.6741 25.6998H23.5741C23.3741 25.6998 23.0741 25.7999 22.8741 25.7999C22.6741 25.7999 22.4741 25.7999 22.2741 25.8999C22.2741 25.8999 22.1741 25.8999 22.0741 25.8999Z" fill="black"/>
<path d="M8.17505 39.7002C7.87505 39.7002 7.57502 39.6002 7.27502 39.3002L0.375 32.6002C-0.125 32.1002 -0.125 31.3002 0.375 30.8002L16.175 15.1002C16.375 14.9002 16.775 14.7002 17.075 14.7002C17.375 14.7002 17.675 14.8002 17.975 15.1002L24.875 21.9002C25.375 22.4002 25.375 23.2002 24.875 23.6002L23.075 25.5002C22.875 25.7002 22.575 25.8002 22.275 25.9002C19.275 26.2002 17.975 27.1002 17.775 27.7002C17.775 27.9002 17.875 28.1002 18.175 28.3002C18.475 28.5002 18.575 28.9002 18.575 29.2002C18.575 29.5002 18.575 29.9002 18.275 30.1002L8.97504 39.4002C8.77504 39.6002 8.47505 39.7002 8.17505 39.7002ZM3.07501 31.7002L8.17505 36.7002L15.775 29.1002C15.475 28.5002 15.275 27.9002 15.375 27.3002C15.575 26.1002 16.575 24.1002 21.575 23.5002L22.175 22.9002L17.075 17.9002L3.07501 31.7002Z" fill="black"/>
<path d="M8.27576 33.4002C7.87576 33.4002 7.47578 33.2002 7.17578 32.9002C6.87578 32.6002 6.67578 32.2002 6.67578 31.8002C6.67578 31.4002 6.87578 31.0002 7.17578 30.7002C7.47578 30.4002 7.87576 30.2002 8.27576 30.2002C8.67576 30.2002 9.07573 30.4002 9.37573 30.7002C9.67573 31.0002 9.87573 31.4002 9.87573 31.8002C9.87573 32.2002 9.67573 32.6002 9.37573 32.9002C9.07573 33.2002 8.67576 33.4002 8.27576 33.4002ZM8.27576 30.9002C8.07576 30.9002 7.77574 31.0002 7.57574 31.2002C7.37574 31.4002 7.27576 31.6002 7.27576 31.9002C7.27576 32.1002 7.37574 32.4002 7.57574 32.6002C7.77574 32.8002 7.97576 32.9002 8.27576 32.9002C8.47576 32.9002 8.77577 32.8002 8.97577 32.6002C9.17577 32.4002 9.27576 32.2002 9.27576 31.9002C9.27576 31.7002 9.17577 31.4002 8.97577 31.2002C8.77577 31.0002 8.57576 30.9002 8.27576 30.9002Z" fill="black"/>
<path d="M43.5756 45.5998C43.2756 45.5998 42.9756 45.4997 42.6756 45.1997L27.5756 30.2998C27.3756 30.2998 27.2756 30.3998 27.0756 30.3998C23.8756 31.2998 20.2756 32.1998 17.5756 30.7998C16.0756 29.9998 15.2756 28.6998 15.3756 27.3998C15.4756 26.3998 16.3756 24.0998 22.0756 23.4998C22.4756 23.4998 22.8756 23.3998 23.3756 23.3998H23.4756C23.5756 23.3998 23.5756 23.3998 23.6756 23.3998C24.3756 23.3998 24.9756 22.9998 25.8756 22.2998C27.4756 21.0998 29.5756 19.3998 33.7756 21.2998L34.3756 20.9998C34.8756 20.6998 35.4756 20.7997 35.8756 21.1997L36.1756 21.4998L39.5756 24.8998C40.0756 25.3998 40.0756 26.1997 39.5756 26.6997C39.0756 27.1997 38.2756 27.1997 37.7756 26.6997L34.7756 23.6997L34.4756 23.8998C34.0756 24.0998 33.6756 24.0998 33.2756 23.8998C30.1756 22.2998 28.9756 23.2998 27.3756 24.3998C26.3756 25.1998 25.2756 25.9998 23.6756 25.9998H23.4756C23.0756 25.9998 22.6756 26.0998 22.2756 26.0998C18.8756 26.4998 17.9756 27.4998 17.7756 27.8998C17.7756 28.0998 17.9756 28.4998 18.6756 28.7998C20.4756 29.7998 23.4756 28.9997 26.3756 28.1997C26.7756 28.0997 27.1756 27.9998 27.5756 27.8998C27.9756 27.7998 28.4756 27.8997 28.7756 28.1997L43.4756 42.6997L47.0756 39.0998L47.7756 36.3998L45.7756 34.3998C45.2756 33.8998 45.2756 33.0998 45.7756 32.5998C46.2756 32.0998 47.0756 32.0998 47.5756 32.5998L50.1756 35.1997C50.3756 35.3997 50.5756 35.7998 50.5756 36.0998C50.5756 36.1998 50.5756 36.2998 50.5756 36.3998L49.5756 40.0998C49.4756 40.2998 49.3756 40.4997 49.2756 40.6997L44.3756 45.3998C44.1756 45.3998 43.8756 45.5998 43.5756 45.5998Z" fill="black"/>
<path d="M50.6746 38.5C50.3746 38.5 50.0746 38.4 49.7746 38.1L33.9746 22.5C33.4746 22 33.4746 21.2 33.9746 20.7L40.8746 13.9C41.0746 13.7 41.4746 13.5 41.7746 13.5C42.0746 13.5 42.3746 13.6 42.6746 13.9L58.4746 29.5C58.6746 29.7 58.8746 30.1 58.8746 30.4C58.8746 30.7 58.7746 31 58.4746 31.3L51.5746 38.1C51.3746 38.4 50.9746 38.5 50.6746 38.5ZM36.6746 21.7L50.6746 35.5L55.7746 30.5L41.7746 16.6L36.6746 21.7Z" fill="black"/>
<path d="M50.5754 31.8998C50.1754 31.8998 49.7754 31.6998 49.4754 31.4998C48.8754 30.8998 48.8754 29.8998 49.4754 29.2998C49.4754 29.2998 49.5754 29.2998 49.5754 29.1998C49.8754 28.9998 50.1754 28.7998 50.5754 28.7998C50.9754 28.7998 51.3754 28.9998 51.6754 29.1998C52.2754 29.7998 52.2754 30.6998 51.6754 31.2998C51.3754 31.6998 51.0754 31.8998 50.5754 31.8998ZM49.8754 29.6998C49.5754 30.0998 49.5754 30.6998 49.8754 30.9998C50.0754 31.1998 50.2754 31.2998 50.5754 31.2998C50.7754 31.2998 50.9754 31.1998 51.1754 31.0998L50.5754 30.3998L51.2754 29.6998C51.0754 29.4998 50.8754 29.3998 50.5754 29.3998C50.3754 29.3998 50.0754 29.4998 49.8754 29.6998ZM50.9754 30.6998L51.3754 30.9998C51.6754 30.5998 51.6754 29.9998 51.3754 29.6998L50.6754 30.3998L50.9754 30.6998Z" fill="black"/>
<path d="M28.4742 17.6C23.5742 17.6 19.5742 13.7 19.5742 8.79999C19.5742 3.89999 23.4742 0 28.4742 0C29.1742 0 29.7742 0.599988 29.7742 1.29999C29.7742 1.99999 29.1742 2.59998 28.4742 2.59998C25.0742 2.59998 22.0742 5.39996 22.0742 8.89996C22.0742 12.4 24.8742 15.2 28.4742 15.2C31.9742 15.2 34.8742 12.4 34.8742 8.89996C34.8742 8.19996 35.4743 7.59998 36.1743 7.59998C36.8743 7.59998 37.4742 8.19996 37.4742 8.89996C37.2742 13.7 33.3742 17.6 28.4742 17.6Z" fill="black"/>
<path d="M27.1754 12.6001C26.8754 12.6001 26.5754 12.5 26.2754 12.2L23.7754 9.70004C23.2754 9.20004 23.2754 8.40005 23.7754 7.90005C24.2754 7.40005 25.0754 7.40005 25.5754 7.90005L27.2754 9.60006L33.9754 4.10006C34.4754 3.70006 35.2754 3.70007 35.7754 4.30007C36.1754 4.80007 36.1754 5.60006 35.5754 6.10006L27.9754 12.4C27.7754 12.5 27.4754 12.6001 27.1754 12.6001Z" fill="black"/>
</svg>
