<svg width="59" height="58" viewBox="0 0 59 58" fill="none" xmlns="http://www.w3.org/2000/svg">
<path d="M41.7004 9.50018V53.0002C41.7004 54.8002 40.2004 56.3002 38.4004 56.3002H12.1004C8.90039 56.4002 8.90039 53.1002 8.90039 51.3002V51.2002H31.0004C32.8004 51.2002 34.3004 49.7002 34.3004 47.9002V6.2002H38.6004C40.2004 6.2002 41.7004 7.70018 41.7004 9.50018Z" fill="#AFB9D2"/>
<path d="M11.3996 12.5002C13.0996 12.5002 14.4996 11.1002 14.4996 9.40021C14.4996 7.70021 13.0996 6.3002 11.3996 6.3002C9.69961 6.3002 8.29961 7.70021 8.29961 9.40021C8.29961 11.1002 9.69961 12.5002 11.3996 12.5002ZM34.0996 6.2002V48.0002C34.0996 49.8002 32.5996 51.3002 30.7996 51.3002H8.79961H4.39961C2.59961 51.3002 1.09961 49.8002 1.09961 48.0002V4.50018C1.09961 2.70018 2.59961 1.2002 4.39961 1.2002H30.6996C32.4996 1.2002 33.9996 2.70018 33.9996 4.50018V6.2002H34.0996Z" fill="#D7DEED"/>
<path d="M11.3997 6.2002C13.0997 6.2002 14.4997 7.60017 14.4997 9.30017C14.4997 11.0002 13.0997 12.4002 11.3997 12.4002C9.69965 12.4002 8.29965 11.0002 8.29965 9.30017C8.19965 7.60017 9.69965 6.2002 11.3997 6.2002Z" fill="#707487"/>
<path d="M11.4004 13.7004C9.00039 13.7004 6.90039 11.7004 6.90039 9.30035C6.90039 6.90035 8.90039 4.90039 11.4004 4.90039C13.8004 4.90039 15.9004 6.90035 15.9004 9.30035C15.8004 11.7004 13.8004 13.7004 11.4004 13.7004ZM11.4004 7.50037C10.4004 7.50037 9.50039 8.30039 9.50039 9.40039C9.50039 10.5004 10.3004 11.3004 11.4004 11.3004C12.5004 11.3004 13.3004 10.5004 13.3004 9.40039C13.3004 8.30039 12.4004 7.50037 11.4004 7.50037Z" fill="black"/>
<path d="M30.9 52.5H4.6C2.1 52.5 0 50.5 0 48V4.5C0 2 2 0 4.6 0H30.9C33.4 0 35.5 2 35.5 4.5V48C35.5 50.4 33.3 52.5 30.9 52.5ZM4.6 2.5C3.5 2.5 2.6 3.4 2.6 4.5V48C2.6 49.1 3.5 50 4.6 50H30.9C32 50 32.9 49.1 32.9 48V4.5C32.9 3.4 32 2.5 30.9 2.5H4.6Z" fill="black"/>
<path d="M11.8996 57.5004C10.7996 57.5004 9.79961 57.2004 9.09961 56.5004C7.59961 55.1004 7.59961 52.8004 7.59961 51.4004V51.3004C7.59961 50.6004 8.19961 50.0004 8.89961 50.0004C9.59961 50.0004 10.1996 50.6004 10.1996 51.3004V51.4004C10.1996 52.4004 10.1996 54.0004 10.8996 54.7004C10.9996 54.8004 11.2996 55.1004 12.1996 55.0004C12.1996 55.0004 12.1996 55.0004 12.2996 55.0004H38.5996C39.6996 55.0004 40.5996 54.1004 40.5996 53.0004V9.50037C40.5996 8.40037 39.6996 7.50037 38.5996 7.50037H34.0996C33.3996 7.50037 32.7996 6.90038 32.7996 6.20038C32.7996 5.50038 33.3996 4.90039 34.0996 4.90039H38.4996C40.9996 4.90039 43.0996 6.90039 43.0996 9.40039V52.9004C43.0996 55.4004 41.0996 57.4004 38.4996 57.4004H12.1996C12.0996 57.5004 11.9996 57.5004 11.8996 57.5004Z" fill="black"/>
<path d="M49.2992 57.4996C48.5992 57.4996 47.9992 56.8996 47.9992 56.1996V13.1996C47.9992 12.0996 47.0992 11.1996 45.9992 11.1996C45.2992 11.1996 44.6992 10.5996 44.6992 9.89963C44.6992 9.19963 45.2992 8.59961 45.9992 8.59961C48.4992 8.59961 50.5992 10.5996 50.5992 13.0996V56.0996C50.5992 56.8996 49.9992 57.4996 49.2992 57.4996Z" fill="black"/>
<path d="M56.9008 57.4996C56.2008 57.4996 55.6008 56.8996 55.6008 56.1996V15.6996C55.6008 14.5996 54.7008 13.6996 53.6008 13.6996C52.9008 13.6996 52.3008 13.0996 52.3008 12.3996C52.3008 11.6996 52.9008 11.0996 53.6008 11.0996C56.1008 11.0996 58.2008 13.0996 58.2008 15.5996V56.0996C58.2008 56.8996 57.6008 57.4996 56.9008 57.4996Z" fill="black"/>
<path d="M16.4 19.3002C15.7 19.3002 15.1 18.7002 15.1 18.0002V15.6002C15.1 14.5002 14.2 13.7002 13.2 13.7002H9.5C8.4 13.7002 7.6 14.6002 7.6 15.6002V18.0002C7.6 18.7002 7 19.3002 6.3 19.3002C5.6 19.3002 5 18.7002 5 18.0002V15.6002C5 13.2002 7 11.2002 9.5 11.2002H13.2C15.6 11.2002 17.7 13.2002 17.7 15.6002V18.0002C17.7 18.7002 17.1 19.3002 16.4 19.3002Z" fill="black"/>
<path d="M26.5992 11.1996H21.4992C20.7992 11.1996 20.1992 10.5996 20.1992 9.89963C20.1992 9.19963 20.7992 8.59961 21.4992 8.59961H26.5992C27.2992 8.59961 27.8992 9.19963 27.8992 9.89963C27.8992 10.5996 27.2992 11.1996 26.5992 11.1996Z" fill="black"/>
<path d="M29.0992 16.1996H21.4992C20.7992 16.1996 20.1992 15.5996 20.1992 14.8996C20.1992 14.1996 20.7992 13.5996 21.4992 13.5996H29.0992C29.7992 13.5996 30.3992 14.1996 30.3992 14.8996C30.3992 15.5996 29.7992 16.1996 29.0992 16.1996Z" fill="black"/>
<path d="M29.1 27.5004H6.3C5.6 27.5004 5 26.9004 5 26.2004C5 25.5004 5.6 24.9004 6.3 24.9004H29.1C29.8 24.9004 30.4 25.5004 30.4 26.2004C30.4 26.9004 29.8 27.5004 29.1 27.5004Z" fill="black"/>
<path d="M16.4 33.6996H6.3C5.6 33.6996 5 33.0996 5 32.3996C5 31.6996 5.6 31.0996 6.3 31.0996H16.4C17.1 31.0996 17.7 31.6996 17.7 32.3996C17.7 33.0996 17.1 33.6996 16.4 33.6996Z" fill="black"/>
<path d="M29.0992 33.6996H21.4992C20.7992 33.6996 20.1992 33.0996 20.1992 32.3996C20.1992 31.6996 20.7992 31.0996 21.4992 31.0996H29.0992C29.7992 31.0996 30.3992 31.6996 30.3992 32.3996C30.3992 33.0996 29.7992 33.6996 29.0992 33.6996Z" fill="black"/>
<path d="M15.2 40.0004H6.3C5.6 40.0004 5 39.4004 5 38.7004C5 38.0004 5.6 37.4004 6.3 37.4004H15.2C15.9 37.4004 16.5 38.0004 16.5 38.7004C16.5 39.4004 15.8 40.0004 15.2 40.0004Z" fill="black"/>
<path d="M21.4992 40.0004H18.9992C18.2992 40.0004 17.6992 39.4004 17.6992 38.7004C17.6992 38.0004 18.2992 37.4004 18.9992 37.4004H21.4992C22.1992 37.4004 22.7992 38.0004 22.7992 38.7004C22.7992 39.4004 22.1992 40.0004 21.4992 40.0004Z" fill="black"/>
<path d="M29.1 40.0004H25.3C24.6 40.0004 24 39.4004 24 38.7004C24 38.0004 24.6 37.4004 25.3 37.4004H29.1C29.8 37.4004 30.4 38.0004 30.4 38.7004C30.4 39.4004 29.8 40.0004 29.1 40.0004Z" fill="black"/>
</svg>
