<svg width="13" height="13" viewBox="0 0 13 13" fill="none" xmlns="http://www.w3.org/2000/svg">
<path d="M1.18182 11.8182H0V8.27273H3.54545V9.45455H2.08C3.03136 10.8786 4.65636 11.8182 6.5 11.8182C9.43682 11.8182 11.8182 9.43682 11.8182 6.5H13C13 10.0927 10.0927 13 6.5 13C4.30182 13 2.35773 11.9068 1.18182 10.2405V11.8182ZM0 6.5C0 2.90727 2.90727 0 6.5 0C8.69818 0 10.6423 1.09318 11.8182 2.75955V1.18182H13V4.72727H9.45455V3.54545H10.92C9.96864 2.12136 8.34364 1.18182 6.5 1.18182C3.56318 1.18182 1.18182 3.56318 1.18182 6.5H0Z" fill="#8F8F8F"/>
</svg>
