<svg width="21" height="20" viewBox="0 0 21 20" fill="none" xmlns="http://www.w3.org/2000/svg">
<path fill-rule="evenodd" clip-rule="evenodd" d="M12.2484 3.75991C14.5902 6.10441 14.5872 9.90263 12.2418 12.2435C9.89634 14.5843 6.09659 14.5813 3.7548 12.2368C1.41302 9.89234 1.41599 6.09413 3.76144 3.75329C6.10689 1.41244 9.90664 1.41541 12.2484 3.75991ZM14.4136 12.7849C16.7586 9.65429 16.5095 5.19584 13.664 2.34709C10.5416 -0.778909 5.47531 -0.782866 2.34804 2.33825C-0.779224 5.45937 -0.783183 10.5237 2.3392 13.6497C5.25828 16.5721 9.87641 16.7659 13.0207 14.2284L19.0486 19.2033C19.4745 19.5549 20.105 19.4947 20.4567 19.0689C20.8084 18.6431 20.7482 18.0129 20.3222 17.6614L14.4136 12.7849Z" fill="#2F80DC"/>
</svg>
