<svg width="19" height="16" viewBox="0 0 19 16" fill="none" xmlns="http://www.w3.org/2000/svg">
<path d="M16.8636 5.6H11.7009L12.4782 1.944L12.5027 1.688C12.5027 1.36 12.3636 1.056 12.1427 0.84L11.2755 0L5.89182 5.272C5.58909 5.56 5.40909 5.96 5.40909 6.4V14.4C5.40909 15.28 6.14545 16 7.04545 16H14.4091C15.0882 16 15.6691 15.6 15.9145 15.024L18.3855 9.384C18.4591 9.2 18.5 9.008 18.5 8.8V7.2C18.5 6.32 17.7636 5.6 16.8636 5.6ZM16.8636 8.8L14.4091 14.4H7.04545V6.4L10.5964 2.928L9.68818 7.2H16.8636V8.8ZM0.5 6.4H3.77273V16H0.5V6.4Z" fill="#2F80DC"/>
</svg>
