<svg width="13" height="14" viewBox="0 0 13 14" fill="none" xmlns="http://www.w3.org/2000/svg">
<path d="M1.18182 12.3182H0V8.77273H3.54545V9.95455H2.08C3.03136 11.3786 4.65636 12.3182 6.5 12.3182C9.43682 12.3182 11.8182 9.93682 11.8182 7H13C13 10.5927 10.0927 13.5 6.5 13.5C4.30182 13.5 2.35773 12.4068 1.18182 10.7405V12.3182ZM0 7C0 3.40727 2.90727 0.5 6.5 0.5C8.69818 0.5 10.6423 1.59318 11.8182 3.25955V1.68182H13V5.22727H9.45455V4.04545H10.92C9.96864 2.62136 8.34364 1.68182 6.5 1.68182C3.56318 1.68182 1.18182 4.06318 1.18182 7H0Z" fill="#8F8F8F"/>
</svg>
