<svg width="16" height="11" viewBox="0 0 16 11" fill="none" xmlns="http://www.w3.org/2000/svg">
<path d="M8 1.46667C10.7564 1.46667 13.2145 3.02867 14.4145 5.5C13.2145 7.97133 10.7636 9.53333 8 9.53333C5.23636 9.53333 2.78545 7.97133 1.58545 5.5C2.78545 3.02867 5.24364 1.46667 8 1.46667ZM8 0C4.36364 0 1.25818 2.28067 0 5.5C1.25818 8.71933 4.36364 11 8 11C11.6364 11 14.7418 8.71933 16 5.5C14.7418 2.28067 11.6364 0 8 0ZM8 3.66667C9.00364 3.66667 9.81818 4.488 9.81818 5.5C9.81818 6.512 9.00364 7.33333 8 7.33333C6.99636 7.33333 6.18182 6.512 6.18182 5.5C6.18182 4.488 6.99636 3.66667 8 3.66667ZM8 2.2C6.19636 2.2 4.72727 3.68133 4.72727 5.5C4.72727 7.31867 6.19636 8.8 8 8.8C9.80364 8.8 11.2727 7.31867 11.2727 5.5C11.2727 3.68133 9.80364 2.2 8 2.2Z" fill="#A8A8A8"/>
</svg>
