<svg width="18" height="16" viewBox="0 0 18 16" fill="none" xmlns="http://www.w3.org/2000/svg">
<g id="bag_icon">
<path id="XMLID_19436_" d="M13.2407 8.52001H4.76121H0.967773V5.32161C0.967773 4.50342 1.63721 3.83398 2.4554 3.83398H5.72816H12.2737H15.4722C16.2903 3.83398 16.9598 4.50342 16.9598 5.32161V8.52001H13.2407Z" fill="#5B6072"/>
<path id="XMLID_19438_" d="M13.2401 8.52148H17.0335V13.5794C17.0335 14.3976 16.3641 15.0671 15.5459 15.0671H2.52913C1.71094 15.0671 1.0415 14.3976 1.0415 13.5794V8.52148H4.83494H13.2401Z" fill="#707487"/>
<path id="XMLID_19471_" d="M15.4714 15.9583H2.45462C1.11576 15.9583 0 14.8426 0 13.5037V5.32177C0 3.9829 1.11576 2.86719 2.45462 2.86719H5.72738C6.24805 2.86719 6.69433 3.31347 6.69433 3.83414C6.69433 4.35481 6.24805 4.80109 5.72738 4.80109H2.45462C2.1571 4.80109 1.85954 5.02424 1.85954 5.39615V13.5781C1.85954 13.8756 2.08272 14.1732 2.45462 14.1732H15.4714C15.7689 14.1732 16.0664 13.95 16.0664 13.5781V5.39615C16.0664 5.09863 15.8433 4.80109 15.4714 4.80109H12.2729C11.7523 4.80109 11.306 4.35481 11.306 3.83414C11.306 3.31347 11.7523 2.86719 12.2729 2.86719H15.4714C16.8102 2.86719 17.926 3.9829 17.926 5.32177V13.5037C17.926 14.8426 16.8102 15.9583 15.4714 15.9583Z" fill="#333333"/>
<path id="XMLID_19473_" d="M12.2719 4.80142H5.65201C5.13134 4.80142 4.68506 4.35514 4.68506 3.83447V1.00799C4.68506 0.487318 5.13134 0.0410156 5.65201 0.0410156H12.2719C12.7926 0.0410156 13.2389 0.487318 13.2389 1.00799V3.83447C13.2389 4.35514 12.7926 4.80142 12.2719 4.80142ZM6.61896 2.94189H11.3794V1.97494H6.61896V2.94189Z" fill="#333333"/>
<path id="XMLID_19477_" d="M17.0332 9.41244H1.04117C0.520498 9.41244 0.0742188 8.96616 0.0742188 8.44549C0.0742188 7.92482 0.520498 7.47852 1.04117 7.47852H17.0332C17.5538 7.47852 18.0001 7.92482 18.0001 8.44549C17.9257 8.96616 17.4795 9.41244 17.0332 9.41244Z" fill="#333333"/>
<path id="XMLID_19479_" d="M13.2399 10.3795C12.7193 10.3795 12.2729 9.93327 12.2729 9.4126V6.58611C12.2729 6.06544 12.7193 5.61914 13.2399 5.61914C13.7606 5.61914 14.2069 6.06544 14.2069 6.58611V9.4126C14.1325 9.93327 13.6862 10.3795 13.2399 10.3795Z" fill="#333333"/>
<path id="XMLID_19481_" d="M4.75992 10.3795C4.23925 10.3795 3.79297 9.93327 3.79297 9.4126V6.58611C3.79297 6.06544 4.23925 5.61914 4.75992 5.61914C5.28059 5.61914 5.72687 6.06544 5.72687 6.58611V9.4126C5.72687 9.93327 5.28059 10.3795 4.75992 10.3795Z" fill="#333333"/>
</g>
</svg>
