<svg width="17" height="18" viewBox="0 0 17 18" fill="none" xmlns="http://www.w3.org/2000/svg">
<g id="Calendar month" clip-path="url(#clip0_91_2920)">
<g id="Group">
<path id="Vector" d="M13.4583 3.33268H12.75V1.91602H11.3333V3.33268H5.66667V1.91602H4.25V3.33268H3.54167C2.75542 3.33268 2.13208 3.97018 2.13208 4.74935L2.125 14.666C2.125 15.4452 2.75542 16.0827 3.54167 16.0827H13.4583C14.2375 16.0827 14.875 15.4452 14.875 14.666V4.74935C14.875 3.97018 14.2375 3.33268 13.4583 3.33268ZM13.4583 14.666H3.54167V7.58268H13.4583V14.666ZM13.4583 6.16602H3.54167V4.74935H13.4583V6.16602ZM6.375 10.416H4.95833V8.99935H6.375V10.416ZM9.20833 10.416H7.79167V8.99935H9.20833V10.416ZM12.0417 10.416H10.625V8.99935H12.0417V10.416ZM6.375 13.2493H4.95833V11.8327H6.375V13.2493ZM9.20833 13.2493H7.79167V11.8327H9.20833V13.2493ZM12.0417 13.2493H10.625V11.8327H12.0417V13.2493Z" fill="#A8A8A8"/>
</g>
</g>
<defs>
<clipPath id="clip0_91_2920">
<rect width="17" height="17" fill="white" transform="translate(0 0.5)"/>
</clipPath>
</defs>
</svg>
