<svg width="18" height="18" viewBox="0 0 18 18" fill="none" xmlns="http://www.w3.org/2000/svg">
<path id="Vector" d="M9.12793 0.5C4.43593 0.5 0.62793 4.308 0.62793 9C0.62793 13.692 4.43593 17.5 9.12793 17.5C13.8199 17.5 17.6279 13.692 17.6279 9C17.6279 4.308 13.8199 0.5 9.12793 0.5ZM9.12793 15.8C5.37943 15.8 2.32793 12.7485 2.32793 9C2.32793 5.2515 5.37943 2.2 9.12793 2.2C12.8764 2.2 15.9279 5.2515 15.9279 9C15.9279 12.7485 12.8764 15.8 9.12793 15.8ZM13.0294 5.243L7.42793 10.8445L5.22643 8.6515L4.02793 9.85L7.42793 13.25L14.2279 6.45L13.0294 5.243Z" fill="#2F80DC"/>
</svg>
