<svg width="46" height="46" viewBox="0 0 46 46" fill="none" xmlns="http://www.w3.org/2000/svg">
<g id="position_inform_icon02">
<g id="XMLID_18564_">
<g id="XMLID_18565_">
<g id="XMLID_00000032634474087334963640000002184010507329466795_">
<g id="XMLID_18567_">
<path id="XMLID_18568_" d="M32.702 7.44891V41.5581C32.702 42.9695 31.5258 44.1457 30.1144 44.1457H9.49209C6.98291 44.2241 6.98291 41.6365 6.98291 40.2251V40.1467H24.3119C25.7234 40.1467 26.8995 38.9705 26.8995 37.5591V4.86133H30.2712C31.5258 4.86133 32.702 6.0375 32.702 7.44891Z" fill="#AFB9D2"/>
</g>
<g id="XMLID_18569_">
<path id="XMLID_18570_" d="M8.94899 9.80194C10.282 9.80194 11.3798 8.70419 11.3798 7.37119C11.3798 6.03819 10.282 4.94042 8.94899 4.94042C7.61599 4.94042 6.51822 6.03819 6.51822 7.37119C6.51822 8.70419 7.61599 9.80194 8.94899 9.80194ZM26.7485 4.862V37.6382C26.7485 39.0496 25.5723 40.2258 24.1609 40.2258H6.91028H3.46015C2.04874 40.2258 0.872559 39.0496 0.872559 37.6382V3.52899C0.872559 2.11758 2.04874 0.941406 3.46015 0.941406H24.0825C25.4939 0.941406 26.6701 2.11758 26.6701 3.52899V4.862H26.7485Z" fill="#D7DEED"/>
</g>
<g id="XMLID_18573_">
<path id="XMLID_18574_" d="M8.9501 4.86133C10.2831 4.86133 11.3809 5.95908 11.3809 7.29208C11.3809 8.62508 10.2831 9.72288 8.9501 9.72288C7.6171 9.72288 6.51933 8.62508 6.51933 7.29208C6.44092 5.95908 7.6171 4.86133 8.9501 4.86133Z" fill="#707487"/>
</g>
</g>
<g id="XMLID_18566_">
<g id="XMLID_18575_">
<path id="XMLID_18576_" d="M8.94065 10.742C7.05876 10.742 5.41211 9.17378 5.41211 7.29189C5.41211 5.41001 6.98035 3.8418 8.94065 3.8418C10.8225 3.8418 12.4692 5.41001 12.4692 7.29189C12.3908 9.17378 10.8225 10.742 8.94065 10.742ZM8.94065 5.88049C8.15653 5.88049 7.45082 6.5078 7.45082 7.37033C7.45082 8.23286 8.07811 8.86013 8.94065 8.86013C9.80318 8.86013 10.4305 8.23286 10.4305 7.37033C10.4305 6.5078 9.72476 5.88049 8.94065 5.88049Z" fill="black"/>
</g>
<g id="XMLID_18579_">
<path id="XMLID_18580_" d="M24.2293 41.1663H3.60695C1.64665 41.1663 0 39.598 0 37.6377V3.52854C0 1.56824 1.56824 0 3.60695 0H24.2293C26.1896 0 27.8362 1.56824 27.8362 3.52854V37.6377C27.8362 39.5196 26.1112 41.1663 24.2293 41.1663ZM3.60695 1.9603C2.74442 1.9603 2.03871 2.666 2.03871 3.52854V37.6377C2.03871 38.5002 2.74442 39.206 3.60695 39.206H24.2293C25.0918 39.206 25.7975 38.5002 25.7975 37.6377V3.52854C25.7975 2.666 25.0918 1.9603 24.2293 1.9603H3.60695Z" fill="black"/>
</g>
<g id="XMLID_18583_">
<path id="XMLID_18584_" d="M9.33168 45.0864C8.46914 45.0864 7.68502 44.8512 7.13614 44.3023C5.95996 43.2046 5.95996 41.4011 5.95996 40.3033V40.2249C5.95996 39.676 6.43043 39.2055 6.97932 39.2055C7.5282 39.2055 7.99867 39.676 7.99867 40.2249V40.3033C7.99867 41.0875 7.99867 42.342 8.54756 42.8909C8.62597 42.9693 8.8612 43.2046 9.56691 43.1261C9.56691 43.1261 9.56691 43.1261 9.64532 43.1261H30.2677C31.1302 43.1261 31.8359 42.4204 31.8359 41.5579V7.44873C31.8359 6.58619 31.1302 5.88049 30.2677 5.88049H26.7391C26.1902 5.88049 25.7198 5.41003 25.7198 4.86114C25.7198 4.31226 26.1902 3.8418 26.7391 3.8418H30.1892C32.1495 3.8418 33.7962 5.41004 33.7962 7.37033V41.4795C33.7962 43.4398 32.228 45.008 30.1892 45.008H9.56691C9.4885 45.0865 9.41009 45.0864 9.33168 45.0864Z" fill="black"/>
</g>
<g id="XMLID_18585_">
<path id="XMLID_18586_" d="M38.6651 45.0876C38.1162 45.0876 37.6457 44.6171 37.6457 44.0682V10.3511C37.6457 9.48856 36.94 8.78286 36.0775 8.78286C35.5286 8.78286 35.0581 8.31239 35.0581 7.76351C35.0581 7.21463 35.5286 6.74414 36.0775 6.74414C38.0378 6.74414 39.6844 8.3124 39.6844 10.2727V43.9898C39.6844 44.6171 39.2139 45.0876 38.6651 45.0876Z" fill="black"/>
</g>
<g id="XMLID_18587_">
<path id="XMLID_18588_" d="M44.6133 45.0862C44.0644 45.0862 43.5939 44.6158 43.5939 44.0669V12.3101C43.5939 11.4475 42.8882 10.7418 42.0257 10.7418C41.4768 10.7418 41.0063 10.2714 41.0063 9.72247C41.0063 9.17359 41.4768 8.70312 42.0257 8.70312C43.986 8.70312 45.6326 10.2714 45.6326 12.2317V43.9885C45.6326 44.6158 45.1622 45.0862 44.6133 45.0862Z" fill="black"/>
</g>
<g id="XMLID_18589_">
<path id="XMLID_18590_" d="M12.8662 15.1326C12.3173 15.1326 11.8468 14.6621 11.8468 14.1133V12.2314C11.8468 11.3689 11.1411 10.7415 10.357 10.7415H7.45578C6.59325 10.7415 5.96595 11.4473 5.96595 12.2314V14.1133C5.96595 14.6621 5.49549 15.1326 4.9466 15.1326C4.39772 15.1326 3.92725 14.6621 3.92725 14.1133V12.2314C3.92725 10.3495 5.49548 8.78125 7.45578 8.78125H10.357C12.2389 8.78125 13.8856 10.3495 13.8856 12.2314V14.1133C13.8856 14.6621 13.4151 15.1326 12.8662 15.1326Z" fill="black"/>
</g>
<g id="XMLID_18591_">
<path id="XMLID_18592_" d="M20.8655 8.78286H16.8665C16.3176 8.78286 15.8472 8.31239 15.8472 7.76351C15.8472 7.21463 16.3176 6.74414 16.8665 6.74414H20.8655C21.4144 6.74414 21.8849 7.21463 21.8849 7.76351C21.8849 8.31239 21.4144 8.78286 20.8655 8.78286Z" fill="black"/>
</g>
<g id="XMLID_18593_">
<path id="XMLID_18594_" d="M22.8258 12.7028H16.8665C16.3176 12.7028 15.8472 12.2323 15.8472 11.6834C15.8472 11.1345 16.3176 10.6641 16.8665 10.6641H22.8258C23.3747 10.6641 23.8452 11.1345 23.8452 11.6834C23.8452 12.2323 23.3747 12.7028 22.8258 12.7028Z" fill="black"/>
</g>
<g id="XMLID_18595_">
<path id="XMLID_18596_" d="M22.8245 21.5641H4.9466C4.39772 21.5641 3.92725 21.0936 3.92725 20.5447C3.92725 19.9959 4.39772 19.5254 4.9466 19.5254H22.8245C23.3734 19.5254 23.8439 19.9959 23.8439 20.5447C23.8439 21.0936 23.3734 21.5641 22.8245 21.5641Z" fill="black"/>
</g>
<g id="XMLID_18597_">
<path id="XMLID_18598_" d="M12.8662 26.4254H4.9466C4.39772 26.4254 3.92725 25.9549 3.92725 25.4061C3.92725 24.8572 4.39772 24.3867 4.9466 24.3867H12.8662C13.4151 24.3867 13.8856 24.8572 13.8856 25.4061C13.8856 25.9549 13.4151 26.4254 12.8662 26.4254Z" fill="black"/>
</g>
<g id="XMLID_18599_">
<path id="XMLID_18600_" d="M22.8258 26.4254H16.8665C16.3176 26.4254 15.8472 25.9549 15.8472 25.4061C15.8472 24.8572 16.3176 24.3867 16.8665 24.3867H22.8258C23.3747 24.3867 23.8452 24.8572 23.8452 25.4061C23.8452 25.9549 23.3747 26.4254 22.8258 26.4254Z" fill="black"/>
</g>
<g id="XMLID_18601_">
<path id="XMLID_18602_" d="M11.9253 31.3649H4.9466C4.39772 31.3649 3.92725 30.8944 3.92725 30.3455C3.92725 29.7966 4.39772 29.3262 4.9466 29.3262H11.9253C12.4741 29.3262 12.9446 29.7966 12.9446 30.3455C12.9446 30.8944 12.3957 31.3649 11.9253 31.3649Z" fill="black"/>
</g>
<g id="XMLID_18603_">
<path id="XMLID_18604_" d="M16.8674 31.3649H14.9071C14.3582 31.3649 13.8877 30.8944 13.8877 30.3455C13.8877 29.7966 14.3582 29.3262 14.9071 29.3262H16.8674C17.4162 29.3262 17.8867 29.7966 17.8867 30.3455C17.8867 30.8944 17.4162 31.3649 16.8674 31.3649Z" fill="black"/>
</g>
<g id="XMLID_18605_">
<path id="XMLID_18606_" d="M22.8242 31.3649H19.8446C19.2957 31.3649 18.8252 30.8944 18.8252 30.3455C18.8252 29.7966 19.2957 29.3262 19.8446 29.3262H22.8242C23.3731 29.3262 23.8436 29.7966 23.8436 30.3455C23.8436 30.8944 23.3731 31.3649 22.8242 31.3649Z" fill="black"/>
</g>
</g>
</g>
</g>
</g>
</svg>
