<svg width="17" height="20" viewBox="0 0 17 20" fill="none" xmlns="http://www.w3.org/2000/svg">
<g id="face_icon">
<g id="XMLID_18956_">
<path id="XMLID_18957_" d="M16.0755 5.34593L16.0095 7.31083V7.37635L13.1762 6.0009C12.8468 6.59037 12.2537 7.04887 11.5289 7.04887H3.62194C3.09481 7.04887 2.56769 6.85235 2.10645 6.52487C1.38164 5.9354 0.854492 5.01845 0.854492 4.036V1.28516H2.10645H11.2654C12.0561 1.28516 12.715 1.94012 13.0444 2.52959C13.1103 2.59508 13.1762 2.72608 13.1762 2.85707L16.0755 5.34593Z" fill="#A28671"/>
</g>
<g id="XMLID_18958_">
<path id="XMLID_18959_" d="M16.0134 7.31201C16.0792 7.5085 16.1451 7.705 16.1451 7.90149C16.1451 11.7658 13.6413 18.6429 9.02887 18.6429C4.41647 18.6429 1.9126 11.7658 1.9126 7.90149C1.9126 7.37752 1.9785 6.91905 2.04439 6.39508C2.50563 6.72256 3.03275 6.91904 3.55989 6.91904H11.401C12.1258 6.91904 12.7847 6.46056 13.0482 5.87109L16.0134 7.31201Z" fill="#FFD8A8"/>
</g>
<g id="XMLID_18960_">
<path id="XMLID_18961_" d="M9.0269 15.6307C7.77496 15.6307 6.7207 15.0413 6.06178 14.5828C5.73232 14.2553 5.66645 13.7968 5.99591 13.4038C6.32536 13.0764 6.7866 13.0109 7.18194 13.3384C7.37962 13.4694 8.8951 14.7793 10.7401 13.3384C11.0695 13.0764 11.5967 13.0764 11.9261 13.4694C12.1897 13.7968 12.1897 14.3208 11.7943 14.6483C10.9378 15.3033 9.88349 15.6307 9.0269 15.6307Z" fill="#333333"/>
</g>
<g id="XMLID_18976_">
<path id="XMLID_18977_" d="M9.0271 19.5613C6.72089 19.5613 4.54649 17.9893 3.03099 15.173C1.84494 13.0116 1.12012 10.1952 1.12012 7.96836C1.12012 7.44438 1.186 6.85491 1.31778 6.33094C1.38368 5.87247 1.84492 5.61048 2.30616 5.67598C2.7674 5.74147 3.03096 6.19995 2.96507 6.65842C2.89918 7.1169 2.83328 7.57538 2.83328 7.96836C2.83328 9.93326 3.49222 12.4876 4.54648 14.387C5.40307 15.9589 6.91855 17.8584 9.09297 17.8584C11.2674 17.8584 12.7829 15.9589 13.6395 14.387C14.6938 12.4221 15.3527 9.93326 15.3527 7.96836C15.3527 7.90286 15.3527 7.70639 15.2868 7.57539C15.155 7.11692 15.4186 6.65844 15.8798 6.59294C16.3411 6.46195 16.8023 6.72391 16.8682 7.18239C16.9341 7.44438 16.9341 7.70637 16.9341 7.96836C16.9341 10.1952 16.2093 13.0116 15.0232 15.173C13.5077 17.9893 11.3992 19.5613 9.0271 19.5613Z" fill="#333333"/>
</g>
<g id="XMLID_18978_">
<path id="XMLID_18979_" d="M16.0116 8.16609C15.8798 8.16609 15.7481 8.16611 15.6822 8.10061L13.4419 7.05268C12.9148 7.57665 12.2558 7.90413 11.531 7.90413H3.62403C2.89923 7.90413 2.17444 7.64212 1.58141 7.18364C0.59304 6.46318 0 5.21875 0 4.03981V1.28897C0 0.830492 0.395341 0.4375 0.856582 0.4375H11.3333C12.5194 0.4375 13.376 1.28896 13.8372 2.07492C13.9031 2.20591 13.969 2.27142 14.0349 2.33692L16.7365 4.76028C16.9341 4.89127 17 5.15326 17 5.34975L16.9341 7.31464C16.9341 7.57663 16.8024 7.83862 16.5388 7.96961C16.3411 8.1006 16.1434 8.16609 16.0116 8.16609ZM1.64729 2.07492V4.03981C1.64729 4.69478 2.04265 5.41525 2.56978 5.87373C2.76746 6.07022 3.16279 6.26671 3.62403 6.26671H11.4651C11.8605 6.26671 12.1899 6.07021 12.3876 5.67723C12.5853 5.28425 13.0465 5.08778 13.5078 5.28427L15.221 6.07021V5.74273L12.6512 3.38485C12.5194 3.31935 12.4535 3.18836 12.4535 3.05736V2.99188C12.4535 2.92639 12.3876 2.92638 12.3876 2.86088C12.1899 2.4679 11.7287 2.00943 11.3333 2.00943L1.64729 2.07492Z" fill="#333333"/>
</g>
<g id="XMLID_18982_">
<path id="XMLID_18983_" d="M12.0588 11.1131H11.1364C10.6751 11.1131 10.2798 10.7201 10.2798 10.2616C10.2798 9.80313 10.6751 9.41016 11.1364 9.41016H12.0588C12.5201 9.41016 12.9154 9.80313 12.9154 10.2616C12.9154 10.7201 12.5201 11.1131 12.0588 11.1131Z" fill="#333333"/>
</g>
<g id="XMLID_18984_">
<path id="XMLID_18985_" d="M6.52517 11.1131H5.60268C5.14143 11.1131 4.74609 10.7201 4.74609 10.2616C4.74609 9.80313 5.14143 9.41016 5.60268 9.41016H6.52517C6.98641 9.41016 7.38175 9.80313 7.38175 10.2616C7.38175 10.7201 6.98641 11.1131 6.52517 11.1131Z" fill="#333333"/>
</g>
</g>
</svg>
