<svg width="14" height="18" viewBox="0 0 14 18" fill="none" xmlns="http://www.w3.org/2000/svg">
<g id="file_icon">
<path id="Vector" d="M8.74919 0.25H1.74984C0.787427 0.25 0 1.03743 0 1.99984V15.9985C0 16.9609 0.787427 17.7484 1.74984 17.7484H12.2489C13.2113 17.7484 13.9987 16.9609 13.9987 15.9985V5.49951L8.74919 0.25ZM12.2489 15.9985H1.74984V1.99984H8.74919V5.49951H12.2489V15.9985ZM6.99935 13.3738C6.03694 13.3738 5.24951 12.5864 5.24951 11.6239V6.81189C5.24951 6.56691 5.44199 6.37443 5.68697 6.37443C5.93195 6.37443 6.12443 6.56691 6.12443 6.81189V11.6239H7.87427V6.81189C7.87427 5.6045 6.89436 4.62459 5.68697 4.62459C4.47958 4.62459 3.49967 5.6045 3.49967 6.81189V11.6239C3.49967 13.5575 5.06578 15.1236 6.99935 15.1236C8.93292 15.1236 10.499 13.5575 10.499 11.6239V8.12427H8.74919V11.6239C8.74919 12.5864 7.96176 13.3738 6.99935 13.3738Z" fill="#8F8F8F"/>
</g>
</svg>
