<svg width="47" height="48" viewBox="0 0 47 48" fill="none" xmlns="http://www.w3.org/2000/svg">
<g id="position_inform_icon03">
<g id="_x35_19_x2C__Job_x2C__Themes_x2C__Work">
<g id="XMLID_18652_">
<g id="XMLID_18653_">
<g id="XMLID_37827_">
<g id="XMLID_18655_">
<path id="XMLID_18656_" d="M18.791 17.8783L18.0069 18.7409L17.7717 18.8977L17.458 19.2897C14.5567 19.6034 13.2238 20.6228 13.0669 21.5637C12.9885 22.0342 13.2237 22.5046 13.6942 22.9751L8.75428 27.8367L6.71554 29.8754V29.9537L6.32348 30.3458L0.913086 25.0138L13.3022 12.7031L18.791 17.8783ZM6.63715 25.1706C6.71556 25.0922 6.71556 24.9354 6.63715 24.857C6.55873 24.7786 6.40189 24.7786 6.32348 24.857C6.24507 24.9354 6.24507 25.0922 6.32348 25.1706C6.40189 25.249 6.55873 25.249 6.63715 25.1706Z" fill="#95AFC0"/>
</g>
<g id="XMLID_18659_">
<path id="XMLID_18660_" d="M45.059 23.9161L39.6486 29.2481L38.6292 28.2288L36.5905 26.1901L30.396 19.9956L27.73 17.3295L27.4947 17.0943L27.3379 16.9375L32.7483 11.6055L45.059 23.9161ZM39.8054 23.9945C39.8838 23.9161 39.8838 23.7593 39.8054 23.6809C39.727 23.6025 39.5701 23.6025 39.4917 23.6809C39.4133 23.7593 39.4133 23.9161 39.4917 23.9945C39.5701 24.073 39.727 24.073 39.8054 23.9945Z" fill="#707487"/>
</g>
<g id="XMLID_18663_">
<path id="XMLID_18664_" d="M27.6509 40.3833C27.8077 40.5401 27.9645 40.6969 28.0429 40.6969L23.2598 45.5584C22.8678 45.9505 22.3189 46.1857 21.77 46.1857C21.2211 46.1857 20.6722 45.9505 20.2801 45.5584C19.5744 44.8527 19.4176 43.755 19.8881 42.9709C20.1233 42.8924 20.2801 42.7356 20.437 42.5788L20.5154 42.5004C21.3779 41.6378 21.3779 40.3833 20.5938 39.4423L22.7893 41.6378C23.1814 42.0299 23.7303 42.2651 24.2792 42.2651C24.828 42.2651 25.3769 42.0299 25.8474 41.6378C26.6315 40.7753 26.7099 39.5207 25.8474 38.6582L27.6509 40.3833Z" fill="#EABD8C"/>
</g>
<g id="XMLID_18665_">
<path id="XMLID_18666_" d="M18.9516 43.1264L19.7357 42.9696L17.9322 44.6946C17.5401 45.0867 16.9913 45.3219 16.4424 45.3219C15.8935 45.3219 15.3446 45.0867 14.8742 44.6946C14.09 43.8321 14.0116 42.5775 14.8742 41.715L13.1491 43.44C12.757 43.8321 12.2081 44.0673 11.6593 44.0673C11.1104 44.0673 10.5615 43.8321 10.1695 43.44C9.30692 42.5775 9.30692 41.3229 10.1695 40.4604L8.13071 42.4991C7.26818 43.3616 5.93521 43.3616 5.07268 42.4991C4.21015 41.6365 4.21015 40.3036 5.07268 39.441L9.93423 34.7363L15.5015 40.2252L17.697 42.4991C17.7754 42.8911 18.3243 43.1264 18.9516 43.1264Z" fill="#EABD8C"/>
</g>
<g id="XMLID_18667_">
<path id="XMLID_18668_" d="M38.6268 28.1494L37.8427 31.0507L34.0005 34.736L21.7683 22.6606C19.1807 23.3663 16.1226 24.3856 14.0839 23.2879C13.2214 22.8174 12.8293 22.1901 12.9078 21.5628C13.0646 20.6219 14.3191 19.6809 17.2988 19.3673C17.6124 19.2889 17.9261 19.2889 18.3181 19.2105C18.3966 19.2105 18.475 19.2105 18.5534 19.2105C21.141 19.1321 21.7683 15.2899 26.473 17.6422L27.3355 17.1717L30.2368 20.073L36.4313 26.1891L38.6268 28.1494Z" fill="#EABD8C"/>
</g>
<g id="XMLID_18669_">
<path id="XMLID_18670_" d="M14.1589 23.2894C16.1976 24.3872 19.1773 23.3678 21.8433 22.6621L34.0755 34.7376L35.8006 36.3842C36.6632 37.2467 36.6632 38.5797 35.8006 39.4423C34.9381 40.3048 33.6051 40.3048 32.7425 39.4423L30.7038 37.4035C31.5664 38.2661 31.5664 39.5207 30.7038 40.3832C30.3118 40.7753 29.7629 41.0105 29.214 41.0105C28.6651 41.0105 28.1162 40.8537 27.7242 40.3832L25.9991 38.6582C26.8617 39.5207 26.7832 40.7753 25.9991 41.6378C25.5287 42.0299 24.9798 42.2651 24.4309 42.2651C23.882 42.2651 23.3331 42.0299 22.941 41.6378L20.7455 39.4423C21.5296 40.3048 21.5296 41.6378 20.6671 42.5003L20.5887 42.5788C20.5103 42.6572 20.4319 42.7356 20.3535 42.7356C20.2751 42.814 20.1182 42.8924 20.0398 42.8924L19.883 42.9708C19.0988 43.2845 18.2363 43.0492 17.609 42.5003L15.4135 40.2264L9.84625 34.7376L7.80756 32.6988L7.02344 29.876L13.9237 22.9758C13.7669 23.0542 14.0021 23.211 14.1589 23.2894Z" fill="#FFD8A8"/>
</g>
</g>
<g id="XMLID_18654_">
<g id="XMLID_18671_">
<path id="XMLID_18672_" d="M16.3638 46.2629C15.5797 46.2629 14.7956 45.9493 14.1683 45.4004C14.1683 45.4004 14.1683 45.4004 14.0899 45.322C13.8547 45.0083 13.6195 44.6947 13.4626 44.381C12.9137 44.7731 12.2864 45.0083 11.5807 45.0083C10.7182 45.0083 9.93408 44.6947 9.3852 44.0674C9.07155 43.7537 8.8363 43.4401 8.67947 43.048C7.42488 44.2242 5.46458 44.2242 4.20999 43.048C2.9554 41.7934 2.9554 39.8331 4.20999 38.657L9.07153 33.9522C9.46359 33.5602 10.0909 33.5602 10.4829 33.9522C10.875 34.3443 10.875 34.9716 10.4829 35.3637L5.62144 40.0684C5.15097 40.5388 5.15097 41.2445 5.62144 41.715C6.09191 42.1855 6.7976 42.1855 7.26807 41.715L9.30676 39.6763C9.69882 39.2842 10.3262 39.2842 10.7182 39.6763C11.1103 40.0684 11.1103 40.6957 10.7182 41.0877C10.2477 41.5582 10.2477 42.2639 10.7182 42.656C10.9534 42.8912 11.1887 42.9696 11.5807 42.9696C11.9728 42.9696 12.208 42.8128 12.4432 42.656L14.1683 40.9309C14.5604 40.5388 15.1877 40.5388 15.5797 40.9309C15.9718 41.3229 15.9718 41.9503 15.5797 42.3423C15.1092 42.8128 15.1877 43.5185 15.5797 43.9106C15.8149 44.1458 16.1286 44.2242 16.4423 44.2242C16.6775 44.2242 16.9912 44.1458 17.2264 43.9106L17.54 43.6753C17.3048 43.5185 16.9912 43.3617 16.8343 43.2048C16.4423 42.8128 16.3638 42.2639 16.7559 41.7934C17.148 41.4014 17.6969 41.3229 18.1673 41.715C18.5594 42.0286 19.0299 42.1855 19.4219 42.0287C19.8924 41.8718 20.3629 42.0287 20.5981 42.4207C20.8333 42.8128 20.7549 43.2832 20.4413 43.6753L18.6378 45.4004C17.9321 45.9493 17.2264 46.2629 16.3638 46.2629Z" fill="black"/>
</g>
<g id="XMLID_18673_">
<path id="XMLID_18674_" d="M21.7756 47.126C20.9131 47.126 20.1289 46.8123 19.5801 46.185C18.5607 45.1657 18.4039 43.5975 19.0312 42.4213C19.188 42.186 19.3448 42.0292 19.5801 41.9508C19.5801 41.9508 19.6585 41.9508 19.6585 41.8724C19.7369 41.8724 19.7369 41.794 19.8153 41.794C20.2073 41.4019 20.8346 41.4803 21.2267 41.8724C21.6188 42.2644 21.5404 42.8917 21.1483 43.2838C21.0699 43.3622 20.9915 43.4406 20.8346 43.5191C20.7562 43.5191 20.7562 43.5975 20.6778 43.5975C20.521 43.9895 20.6778 44.46 20.9915 44.7736C21.2267 45.0089 21.5403 45.0873 21.854 45.0873C22.1676 45.0873 22.4813 44.9305 22.7165 44.7736L26.8724 40.6962C26.7939 40.3826 26.8724 39.9905 27.1076 39.6769C27.4996 39.2848 28.1269 39.2848 28.519 39.6769C28.5974 39.7553 28.6758 39.8337 28.6758 39.8337C28.9111 39.9905 29.1463 40.2257 29.1463 40.5394C29.2247 40.853 29.0679 41.1667 28.9111 41.4019L24.1279 46.185C23.3438 46.8123 22.5597 47.126 21.7756 47.126Z" fill="black"/>
</g>
<g id="XMLID_18675_">
<path id="XMLID_18676_" d="M18.9518 44.0672C18.0893 44.0672 17.3052 43.7535 16.7563 43.1262L14.5607 40.8523L6.95478 33.3248C6.79796 33.1679 6.71955 33.0895 6.71955 32.9327L5.85704 30.0315C5.77863 29.7178 5.85703 29.3257 6.09227 29.0905L12.9925 22.2687C13.3846 21.8766 14.0119 21.8766 14.4039 22.2687C14.4823 22.3471 14.5607 22.3471 14.5607 22.3471C15.1096 22.5039 15.3449 23.0528 15.188 23.6017C15.0312 24.1505 14.4823 24.3858 13.9335 24.229H13.8551L7.89573 30.1098L8.52302 32.227L15.9721 39.5977L18.1677 41.8716C18.403 42.1069 18.6382 42.1853 18.9518 42.1853L19.5007 42.1069C19.5791 42.0284 19.7359 42.0285 19.8144 41.9501H19.8927C20.3632 41.4796 20.3632 40.7739 19.8927 40.225C19.5791 39.8329 19.5791 39.2056 19.9712 38.892C20.3632 38.4999 20.9906 38.5783 21.3042 38.892L23.4997 41.0875C23.8134 41.4012 24.127 41.4012 24.2838 41.4012C24.5975 41.4012 24.9111 41.2443 25.1464 41.0875C25.5384 40.6955 25.6168 39.9897 25.1464 39.5193C24.9895 39.3624 24.8327 39.0488 24.8327 38.8136C24.8327 38.5784 24.9111 38.3431 25.1464 38.1079C25.5384 37.7158 26.1657 37.7158 26.5578 38.1079L28.2828 39.8329C28.5181 40.0682 28.7533 40.1466 29.1454 40.1466C29.459 40.1466 29.7727 39.9898 30.0079 39.8329C30.4784 39.3625 30.4784 38.6568 30.0079 38.2647C29.6158 37.8726 29.6158 37.2454 30.0079 36.8533C30.4 36.4612 31.0272 36.4612 31.4193 36.8533L33.458 38.892C33.9285 39.3625 34.6342 39.3625 35.1047 38.892C35.5751 38.4215 35.5751 37.7158 35.1047 37.2454L33.3796 35.5987C32.9875 35.2066 32.9875 34.5793 33.3796 34.1873C33.7717 33.7952 34.3989 33.7952 34.791 34.1873L36.5161 35.8339C37.7707 37.0885 37.7707 39.0488 36.5161 40.225C35.2615 41.4796 33.3012 41.4796 32.0466 40.225C31.8898 40.6171 31.6546 40.9307 31.3409 41.2443C30.792 41.7932 30.0079 42.1853 29.1454 42.1853C28.4397 42.1853 27.734 41.9501 27.2635 41.558C27.1067 41.8717 26.9498 42.1853 26.6362 42.4989C26.6362 42.4989 26.6362 42.5774 26.5578 42.5774C25.9305 43.1262 25.1464 43.4399 24.3622 43.4399C23.4997 43.4399 22.794 43.1262 22.1667 42.4989L21.9315 42.2637C21.7747 42.6558 21.5394 42.9694 21.2258 43.283L21.1474 43.3615C20.9121 43.5967 20.5985 43.7535 20.2848 43.9104H20.0496C19.9712 43.9104 19.8927 43.9888 19.8927 43.9888L19.1086 44.1456C19.1086 44.0672 19.0303 44.0672 18.9518 44.0672Z" fill="black"/>
</g>
<g id="XMLID_18677_">
<path id="XMLID_18678_" d="M17.3063 20.3091C16.9927 20.3091 16.679 20.1523 16.4438 19.8386C16.2086 19.4466 16.287 19.0545 16.5222 18.7408L16.8359 18.3488C16.8359 18.3488 16.8358 18.2704 16.9143 18.2704L17.1495 18.0351C17.5415 17.6431 18.0904 17.6431 18.4825 17.9567L19.0314 18.4272C19.345 18.6624 19.4235 19.0545 19.345 19.4466C19.2666 19.8386 18.953 20.0738 18.5609 20.1522H18.4825C18.3257 20.1522 18.0904 20.2307 17.9336 20.2307C17.7768 20.2307 17.62 20.2307 17.4631 20.3091C17.4631 20.3091 17.3847 20.3091 17.3063 20.3091Z" fill="black"/>
</g>
<g id="XMLID_18679_">
<path id="XMLID_18680_" d="M6.41021 31.1303C6.17498 31.1303 5.93972 31.0519 5.70449 30.8167L0.294045 25.5631C-0.0980149 25.171 -0.0980149 24.5437 0.294045 24.1517L12.6832 11.841C12.84 11.6842 13.1536 11.5273 13.3888 11.5273C13.6241 11.5273 13.8593 11.6058 14.0946 11.841L19.505 17.173C19.897 17.5651 19.897 18.1924 19.505 18.506L18.0936 19.9959C17.9367 20.1527 17.7015 20.2311 17.4663 20.3095C15.1139 20.5447 14.0946 21.2504 13.9377 21.7209C13.9377 21.8777 14.0162 22.0346 14.2514 22.1914C14.4866 22.3482 14.565 22.6618 14.565 22.8971C14.565 23.1323 14.565 23.446 14.3298 23.6028L7.0375 30.8951C6.88067 31.0519 6.64545 31.1303 6.41021 31.1303ZM2.41118 24.8574L6.41021 28.778L12.3695 22.8187C12.1343 22.3482 11.9774 21.8777 12.0558 21.4073C12.2127 20.4663 12.9968 18.8981 16.9174 18.4276L17.3879 17.9571L13.3888 14.0365L2.41118 24.8574Z" fill="black"/>
</g>
<g id="XMLID_18683_">
<path id="XMLID_18684_" d="M6.48309 26.1889C6.16944 26.1889 5.85581 26.0321 5.62058 25.7968C5.38534 25.5616 5.22852 25.248 5.22852 24.9343C5.22852 24.6207 5.38534 24.307 5.62058 24.0717C5.85581 23.8365 6.16944 23.6797 6.48309 23.6797C6.79673 23.6797 7.11036 23.8365 7.3456 24.0717C7.58083 24.307 7.73766 24.6207 7.73766 24.9343C7.73766 25.248 7.58083 25.5616 7.3456 25.7968C7.11036 26.0321 6.79673 26.1889 6.48309 26.1889ZM6.48309 24.2286C6.32626 24.2286 6.09102 24.307 5.93419 24.4638C5.77737 24.6206 5.69897 24.7775 5.69897 25.0127C5.69897 25.1695 5.77737 25.4048 5.93419 25.5616C6.09102 25.7184 6.24785 25.7968 6.48309 25.7968C6.63991 25.7968 6.87516 25.7184 7.03198 25.5616C7.1888 25.4048 7.26721 25.2479 7.26721 25.0127C7.26721 24.8559 7.1888 24.6206 7.03198 24.4638C6.87516 24.307 6.71832 24.2286 6.48309 24.2286Z" fill="black"/>
</g>
<g id="XMLID_18687_">
<path id="XMLID_18688_" d="M34.1637 35.7558C33.9284 35.7558 33.6932 35.6773 33.458 35.4421L21.6177 23.7587C21.4609 23.7587 21.3825 23.8371 21.2257 23.8371C18.7165 24.5428 15.8937 25.2486 13.7766 24.1508C12.6004 23.5235 11.9731 22.5041 12.0515 21.4848C12.1299 20.7007 12.8356 18.8972 17.3051 18.4267C17.6187 18.4267 17.9324 18.3483 18.3244 18.3483H18.4029C18.4813 18.3483 18.4813 18.3483 18.5597 18.3483C19.1086 18.3483 19.579 18.0347 20.2847 17.4858C21.5393 16.5448 23.186 15.2118 26.4793 16.7017L26.9497 16.4664C27.3418 16.2312 27.8123 16.3096 28.1259 16.6232L28.3612 16.8585L31.0272 19.5245C31.4192 19.9165 31.4192 20.5438 31.0272 20.9359C30.6351 21.3279 30.0078 21.3279 29.6158 20.9359L27.2634 18.5835L27.0282 18.7404C26.7145 18.8972 26.4009 18.8972 26.0872 18.7404C23.6565 17.4858 22.7155 18.2699 21.4609 19.1324C20.6768 19.7597 19.8143 20.387 18.5597 20.387H18.4029C18.0892 20.387 17.7756 20.4654 17.4619 20.4654C14.7959 20.7791 14.0902 21.5632 13.9334 21.8768C13.9334 22.0337 14.0902 22.3473 14.6391 22.5826C16.0505 23.3667 18.4028 22.7394 20.6768 22.1121C20.9904 22.0337 21.3041 21.9553 21.6177 21.8768C21.9314 21.7984 22.3235 21.8768 22.5587 22.1121L34.0853 33.4818L36.9081 30.659L37.457 28.5419L35.8887 26.9736C35.4967 26.5816 35.4967 25.9543 35.8887 25.5622C36.2808 25.1702 36.9081 25.1702 37.3001 25.5622L39.3389 27.6009C39.4957 27.7577 39.6525 28.0714 39.6525 28.3066C39.6525 28.385 39.6525 28.4634 39.6525 28.5419L38.8684 31.4431C38.79 31.5999 38.7116 31.7567 38.6331 31.9136L34.7909 35.5989C34.6341 35.5989 34.3989 35.7558 34.1637 35.7558Z" fill="black"/>
</g>
<g id="XMLID_18689_">
<path id="XMLID_18690_" d="M39.7326 30.1889C39.4974 30.1889 39.2621 30.1105 39.0269 29.8752L26.6378 17.643C26.2457 17.2509 26.2457 16.6236 26.6378 16.2316L32.0482 10.8996C32.205 10.7427 32.5187 10.5859 32.7539 10.5859C32.9892 10.5859 33.2244 10.6643 33.4596 10.8996L45.8487 23.1318C46.0055 23.2887 46.1623 23.6023 46.1623 23.8375C46.1623 24.0728 46.0839 24.308 45.8487 24.5432L40.4383 29.8752C40.2814 30.1105 39.9678 30.1889 39.7326 30.1889ZM28.7549 17.0157L39.7326 27.8366L43.7316 23.916L32.7539 13.0167L28.7549 17.0157Z" fill="black"/>
</g>
<g id="XMLID_18693_">
<path id="XMLID_18694_" d="M39.6504 25.0128C39.3368 25.0128 39.0231 24.856 38.7879 24.6992C38.3174 24.2287 38.3174 23.4446 38.7879 22.9741C38.7879 22.9741 38.8663 22.9741 38.8663 22.8957C39.1015 22.7388 39.3368 22.582 39.6504 22.582C39.9641 22.582 40.2777 22.7388 40.513 22.8957C40.9835 23.3661 40.9835 24.0719 40.513 24.5423C40.2777 24.856 40.0425 25.0128 39.6504 25.0128ZM39.1015 23.2877C38.8663 23.6014 38.8663 24.0719 39.1015 24.3071C39.2584 24.4639 39.4152 24.5423 39.6504 24.5423C39.8072 24.5423 39.9641 24.4639 40.1209 24.3855L39.6504 23.8366L40.1993 23.2877C40.0425 23.1309 39.8857 23.0525 39.6504 23.0525C39.4936 23.0525 39.2584 23.1309 39.1015 23.2877ZM39.9641 24.0718L40.2777 24.3071C40.5129 23.9935 40.5129 23.5229 40.2777 23.2877L39.7289 23.8366L39.9641 24.0718Z" fill="black"/>
</g>
<g id="XMLID_18698_">
<path id="XMLID_18699_" d="M22.3302 13.8005C18.4881 13.8005 15.3516 10.7424 15.3516 6.90024C15.3516 3.05805 18.4096 0 22.3302 0C22.8791 0 23.3496 0.470462 23.3496 1.01935C23.3496 1.56823 22.8791 2.03869 22.3302 2.03869C19.6642 2.03869 17.3119 4.23421 17.3119 6.97863C17.3119 9.72305 19.5074 11.9186 22.3302 11.9186C25.0747 11.9186 27.3486 9.72305 27.3486 6.97863C27.3486 6.42975 27.8191 5.95929 28.368 5.95929C28.9169 5.95929 29.3873 6.42975 29.3873 6.97863C29.2305 10.7424 26.1724 13.8005 22.3302 13.8005Z" fill="black"/>
</g>
<g id="XMLID_18700_">
<path id="XMLID_18701_" d="M21.3028 9.8797C21.0676 9.8797 20.8324 9.80126 20.5971 9.56603L18.6368 7.60573C18.2448 7.21367 18.2448 6.58639 18.6368 6.19433C19.0289 5.80227 19.6562 5.80227 20.0482 6.19433L21.3812 7.52734L26.6348 3.21468C27.0269 2.90104 27.6542 2.90104 28.0462 3.37152C28.3599 3.76358 28.3599 4.39086 27.8894 4.78292L21.9301 9.72286C21.7733 9.80127 21.5381 9.8797 21.3028 9.8797Z" fill="black"/>
</g>
</g>
</g>
</g>
</g>
</g>
</svg>
