<svg width="11" height="14" viewBox="0 0 11 14" fill="none" xmlns="http://www.w3.org/2000/svg">
<g id="location_icon">
<path id="Vector" d="M5.5 0C2.45929 0 0 2.39129 0 5.34792C0 9.35887 5.5 13.582 5.5 13.582C5.5 13.582 11 9.35887 11 5.34792C11 2.39129 8.54071 0 5.5 0ZM1.57143 5.34792C1.57143 3.23931 3.33143 1.52798 5.5 1.52798C7.66857 1.52798 9.42857 3.23931 9.42857 5.34792C9.42857 7.54821 7.16571 9.40471 5.5 11.4598C3.86571 9.41999 1.57143 7.52529 1.57143 5.34792Z" fill="#A8A8A8"/>
<path id="Vector_2" d="M5.49944 7.2594C6.58429 7.2594 7.46373 6.40428 7.46373 5.34943C7.46373 4.29458 6.58429 3.43945 5.49944 3.43945C4.4146 3.43945 3.53516 4.29458 3.53516 5.34943C3.53516 6.40428 4.4146 7.2594 5.49944 7.2594Z" fill="#A8A8A8"/>
</g>
</svg>
