<svg width="18" height="18" viewBox="0 0 18 18" fill="none" xmlns="http://www.w3.org/2000/svg">
<path id="Vector" d="M9.12695 0.5C4.43495 0.5 0.626953 4.308 0.626953 9C0.626953 13.692 4.43495 17.5 9.12695 17.5C13.819 17.5 17.627 13.692 17.627 9C17.627 4.308 13.819 0.5 9.12695 0.5ZM9.12695 15.8C5.37845 15.8 2.32695 12.7485 2.32695 9C2.32695 5.2515 5.37845 2.2 9.12695 2.2C12.8755 2.2 15.927 5.2515 15.927 9C15.927 12.7485 12.8755 15.8 9.12695 15.8ZM13.0285 5.243L7.42695 10.8445L5.22545 8.6515L4.02695 9.85L7.42695 13.25L14.227 6.45L13.0285 5.243Z" fill="#CBCBCB"/>
</svg>
