<svg width="46" height="46" viewBox="0 0 46 46" fill="none" xmlns="http://www.w3.org/2000/svg">
<g id="position_inform_icon01">
<g id="XMLID_19612_">
<g id="XMLID_19613_">
<g id="XMLID_00000078756610637133329640000011516483891316651696_">
<g id="XMLID_19615_">
<path id="XMLID_19616_" d="M15.3639 5.80199V7.44863H9.32617V5.80199C9.32617 5.33152 9.71824 4.93945 10.1887 4.93945H14.4229C14.9718 4.93945 15.3639 5.33152 15.3639 5.80199Z" fill="#D7DEED"/>
</g>
<g id="XMLID_19617_">
<path id="XMLID_19618_" d="M8.4638 11.7616H5.01367V9.09558C5.01367 8.23305 5.71938 7.52734 6.58191 7.52734H9.24792H15.2856H17.9516C18.8142 7.52734 19.5199 8.23305 19.5199 9.09558V11.7616H16.2266H8.4638Z" fill="#5B6072"/>
</g>
<g id="XMLID_19619_">
<path id="XMLID_19620_" d="M8.4638 11.7617H16.1482H19.5199V16.1528C19.5199 17.0153 18.8142 17.721 17.9516 17.721H6.58191C5.71938 17.721 5.01367 17.0153 5.01367 16.1528V11.7617H8.4638Z" fill="#707487"/>
</g>
<g id="XMLID_19621_">
<path id="XMLID_19622_" d="M38.2575 30.4238L44.06 36.1479C44.4521 36.54 44.6089 36.932 44.6089 37.4025C44.6089 37.873 44.4521 38.3434 44.06 38.6571C43.3543 39.3628 42.1781 39.3628 41.4724 38.6571L35.6699 33.0114C36.6109 32.3057 37.5518 31.4432 38.2575 30.4238Z" fill="#747371"/>
</g>
<g id="XMLID_19623_">
<path id="XMLID_19624_" d="M32.8456 7.84137V8.86072H28.6113C27.1215 8.86072 25.9453 7.60613 25.9453 6.11631V1.01953C28.6113 3.68554 30.1011 5.17536 32.8456 7.84137Z" fill="#AFB9D2"/>
</g>
<g id="XMLID_19625_">
<path id="XMLID_19626_" d="M21.944 25.6409C21.944 30.5024 25.943 34.423 30.8045 34.423C31.5103 34.423 32.1375 34.3446 32.8433 34.1878V41.4801C32.8433 42.9699 31.6671 44.1461 30.1772 44.1461H3.75244C2.26261 44.1461 1.08643 42.9699 1.08643 41.4801V3.68553C1.08643 2.19571 2.26261 1.01953 3.75244 1.01953H25.8646V6.11631C25.8646 7.60613 27.0408 8.86072 28.5306 8.86072H32.7648V17.094C32.1376 16.9372 31.4318 16.8587 30.7261 16.8587C25.943 16.8587 21.944 20.7793 21.944 25.6409ZM19.67 16.153V11.762V9.09596C19.67 8.23343 18.9643 7.52772 18.1018 7.52772H15.4358V5.88107C15.4358 5.4106 15.0437 5.01854 14.5733 5.01854H10.2606C9.79015 5.01854 9.39809 5.4106 9.39809 5.88107V7.52772H6.73208C5.86955 7.52772 5.16384 8.23343 5.16384 9.09596V11.762V16.153C5.16384 17.0156 5.86955 17.7213 6.73208 17.7213H18.1802C18.9643 17.7213 19.67 17.0156 19.67 16.153Z" fill="#D7DEED"/>
</g>
<g id="XMLID_19629_">
<path id="XMLID_19630_" d="M35.6684 25.6408C35.6684 26.5818 35.3547 27.5227 34.8843 28.3068C34.4922 28.8557 34.0217 29.3262 33.4729 29.7183C33.0024 30.0319 32.5319 30.2671 31.983 30.3455C31.591 30.424 31.2773 30.5024 30.8853 30.5024C28.2193 30.5024 25.9453 28.3068 25.9453 25.6408C25.9453 22.9748 28.1408 20.7793 30.8853 20.7793C31.2773 20.7793 31.6694 20.8577 31.983 20.9361C34.1002 21.4066 35.6684 23.3669 35.6684 25.6408Z" fill="#C7ECEE"/>
</g>
<g id="XMLID_19631_">
<path id="XMLID_19632_" d="M32.8467 17.0946C36.7673 18.0356 39.6686 21.4857 39.6686 25.6415C39.6686 27.445 39.1197 29.0916 38.2572 30.4246C37.5514 31.444 36.6889 32.3065 35.6696 33.0122C34.807 33.5611 33.8661 33.9532 32.9251 34.1884C32.2978 34.3452 31.5921 34.4237 30.8864 34.4237C25.9465 34.4237 22.0259 30.503 22.0259 25.6415C22.0259 20.78 26.0249 16.8594 30.8864 16.8594C31.5137 16.8594 32.2194 16.9378 32.8467 17.0946ZM34.8854 28.3075C35.3559 27.5234 35.6696 26.6609 35.6696 25.6415C35.6696 23.3676 34.1013 21.4073 31.8274 20.9368C31.4353 20.8584 31.1217 20.78 30.7296 20.78C28.0636 20.78 25.7897 22.9755 25.7897 25.6415C25.7897 28.3075 27.9852 30.5031 30.7296 30.5031C31.1217 30.5031 31.5137 30.4246 31.8274 30.3462C32.3763 30.1894 32.9251 29.9542 33.3172 29.7189C34.0229 29.3269 34.4934 28.8564 34.8854 28.3075Z" fill="#DFF9FB"/>
</g>
</g>
<g id="XMLID_19614_">
<g id="XMLID_19635_">
<path id="XMLID_19636_" d="M32.8473 9.87933H28.6131C27.5937 9.87933 26.7312 9.48726 26.0255 8.78155C25.3198 8.07585 24.9277 7.13491 24.9277 6.19397V1.09719C24.9277 0.548307 25.3982 0.15625 25.8687 0.15625C26.4176 0.15625 26.8096 0.626718 26.8096 1.1756V6.27238C26.8096 6.74285 26.9664 7.13491 27.2801 7.52697C27.5937 7.84062 28.0642 7.99743 28.5347 7.99743H32.7689C33.3178 7.99743 33.7883 8.46791 33.7883 9.01679C33.8667 9.40885 33.3962 9.87933 32.8473 9.87933Z" fill="black"/>
</g>
<g id="XMLID_19637_">
<path id="XMLID_19638_" d="M15.4486 35.3629H5.01985C4.47096 35.3629 4.00049 34.8925 4.00049 34.3436C4.00049 33.7947 4.47096 33.3242 5.01985 33.3242H15.4486C15.9975 33.3242 16.468 33.7947 16.468 34.3436C16.3896 34.8925 15.9975 35.3629 15.4486 35.3629Z" fill="black"/>
</g>
<g id="XMLID_19639_">
<path id="XMLID_19640_" d="M14.0387 32.3844H9.02033C8.47145 32.3844 8.00098 31.9139 8.00098 31.3651C8.00098 30.8162 8.47145 30.3457 9.02033 30.3457H14.0387C14.5876 30.3457 15.058 30.8162 15.058 31.3651C15.058 31.9139 14.5092 32.3844 14.0387 32.3844Z" fill="black"/>
</g>
<g id="XMLID_19641_">
<path id="XMLID_19642_" d="M10.5113 29.4821H5.1009C4.55202 29.4821 4.08154 29.0116 4.08154 28.4627C4.08154 27.9138 4.55202 27.4434 5.1009 27.4434H10.5113C11.0602 27.4434 11.5307 27.9138 11.5307 28.4627C11.5307 29.0116 11.0602 29.4821 10.5113 29.4821Z" fill="black"/>
</g>
<g id="XMLID_19643_">
<path id="XMLID_19644_" d="M10.5113 26.5036H5.1009C4.55202 26.5036 4.08154 26.0331 4.08154 25.4842C4.08154 24.9353 4.55202 24.4648 5.1009 24.4648H10.5113C11.0602 24.4648 11.5307 24.9353 11.5307 25.4842C11.5307 26.0331 11.0602 26.5036 10.5113 26.5036Z" fill="black"/>
</g>
<g id="XMLID_19645_">
<path id="XMLID_19646_" d="M24.9391 38.2653H5.1009C4.55202 38.2653 4.08154 37.7948 4.08154 37.2459C4.08154 36.697 4.55202 36.2266 5.1009 36.2266H24.9391C25.488 36.2266 25.9585 36.697 25.9585 37.2459C25.9585 37.7948 25.488 38.2653 24.9391 38.2653Z" fill="black"/>
</g>
<g id="XMLID_19647_">
<path id="XMLID_19648_" d="M18.1173 18.662H6.66914C5.25772 18.662 4.08154 17.4858 4.08154 16.0744V9.01728C4.08154 7.60587 5.25772 6.42969 6.66914 6.42969H9.33514C9.88402 6.42969 10.3545 6.90016 10.3545 7.44904C10.3545 7.99793 9.88402 8.4684 9.33514 8.4684H6.66914C6.35549 8.4684 6.04184 8.70364 6.04184 9.0957V16.1528C6.04184 16.4664 6.27708 16.7801 6.66914 16.7801H18.1173C18.4309 16.7801 18.7446 16.5448 18.7446 16.1528V9.0957C18.7446 8.78205 18.5093 8.4684 18.1173 8.4684H15.4513C14.9024 8.4684 14.4319 7.99793 14.4319 7.44904C14.4319 6.90016 14.9024 6.42969 15.4513 6.42969H18.1173C19.5287 6.42969 20.7049 7.60587 20.7049 9.01728V16.0744C20.7049 17.4858 19.5287 18.662 18.1173 18.662Z" fill="black"/>
</g>
<g id="XMLID_19649_">
<path id="XMLID_19650_" d="M15.3705 8.46781H9.33283C8.78395 8.46781 8.31348 7.99734 8.31348 7.44846V5.80181C8.31348 4.78246 9.17601 3.91992 10.1954 3.91992H14.4296C15.449 3.91992 16.3115 4.78246 16.3115 5.80181V7.44846C16.3899 7.99734 15.9194 8.46781 15.3705 8.46781ZM10.4306 6.50752H14.508V5.88022H10.4306V6.50752Z" fill="black"/>
</g>
<g id="XMLID_19653_">
<path id="XMLID_19654_" d="M19.6855 12.7028H5.1009C4.55202 12.7028 4.08154 12.2323 4.08154 11.6834C4.08154 11.1345 4.55202 10.6641 5.1009 10.6641H19.6855C20.2344 10.6641 20.7049 11.1345 20.7049 11.6834C20.7049 12.3107 20.2344 12.7028 19.6855 12.7028Z" fill="black"/>
</g>
<g id="XMLID_19655_">
<path id="XMLID_19656_" d="M16.2298 14.3487C15.6809 14.3487 15.2104 13.8782 15.2104 13.3293V10.8201C15.2104 10.2713 15.6809 9.80078 16.2298 9.80078C16.7787 9.80078 17.2492 10.2713 17.2492 10.8201V13.4077C17.2492 13.8782 16.8571 14.3487 16.2298 14.3487Z" fill="black"/>
</g>
<g id="XMLID_19657_">
<path id="XMLID_19658_" d="M8.46467 14.3487C7.91579 14.3487 7.44531 13.8782 7.44531 13.3293V10.8201C7.44531 10.2713 7.91579 9.80078 8.46467 9.80078C9.01355 9.80078 9.40561 10.2713 9.40561 10.8201V13.4077C9.48402 13.8782 9.01355 14.3487 8.46467 14.3487Z" fill="black"/>
</g>
<g id="XMLID_19659_">
<path id="XMLID_19660_" d="M42.7351 40.2254C42.0293 40.2254 41.3236 39.9901 40.7748 39.4412L34.9723 33.7172C34.5802 33.3251 34.5802 32.6978 34.9723 32.3057C35.3643 31.9137 35.9916 31.9137 36.3837 32.3057L42.1862 38.0298C42.4998 38.3435 43.0487 38.3435 43.3624 38.0298C43.5192 37.873 43.5976 37.6378 43.5976 37.4025C43.5976 37.1673 43.5192 36.9321 43.3624 36.7752L37.5599 31.0512C37.1678 30.6591 37.1678 30.0318 37.5599 29.6397C37.9519 29.2477 38.5792 29.2477 38.9713 29.6397L44.7738 35.3638C45.3226 35.9127 45.5579 36.6184 45.5579 37.3241C45.5579 38.1082 45.2442 38.7355 44.7738 39.2844C44.2249 39.9901 43.4408 40.2254 42.7351 40.2254Z" fill="black"/>
</g>
<g id="XMLID_19661_">
<path id="XMLID_19662_" d="M30.1102 45.1653H3.76377C1.72506 45.1653 0 43.5186 0 41.4799V3.68536C0 1.64665 1.64665 0 3.76377 0H25.8759C26.1112 0 26.3464 0.0784131 26.5816 0.313649L33.4819 7.13549C33.6387 7.29231 33.7955 7.60596 33.7955 7.84119V17.0938C33.7955 17.6427 33.3251 18.1132 32.7762 18.1132C32.2273 18.1132 31.7568 17.6427 31.7568 17.0938V8.23325L25.4055 1.9603H3.76377C2.82283 1.9603 2.0387 2.74441 2.0387 3.68536V41.4015C2.0387 42.3424 2.82283 43.1265 3.76377 43.1265H30.0318C30.9727 43.1265 31.7568 42.3424 31.7568 41.4015V34.1092C31.7568 33.5603 32.2273 33.0898 32.7762 33.0898C33.3251 33.0898 33.7955 33.5603 33.7955 34.1092V41.4015C33.8739 43.4402 32.1489 45.1653 30.1102 45.1653Z" fill="black"/>
</g>
<g id="XMLID_19663_">
<path id="XMLID_19664_" d="M30.8098 35.3641C25.321 35.3641 21.0083 30.9731 21.0083 25.641C21.0083 20.2306 25.4778 15.918 30.8098 15.918C31.5939 15.918 32.2996 15.9964 33.0837 16.1532C35.2009 16.6237 37.1611 17.8783 38.4941 19.5249C39.9056 21.25 40.6113 23.4455 40.6113 25.641C40.6113 27.5229 40.0624 29.4048 39.043 30.9731C38.2589 32.1492 37.318 33.0902 36.2202 33.7959C35.2793 34.4232 34.2599 34.8152 33.1621 35.1289C32.378 35.2857 31.5939 35.3641 30.8098 35.3641ZM30.8098 17.8783C26.4187 17.8783 22.9686 21.4068 22.9686 25.641C22.9686 29.9537 26.5755 33.4038 30.8098 33.4038C31.4371 33.4038 31.986 33.3254 32.6133 33.1686C33.4758 32.9334 34.3383 32.6197 35.044 32.1492C35.985 31.6003 36.7691 30.7378 37.318 29.8753C38.1805 28.6207 38.5726 27.1309 38.5726 25.641C38.5726 22.0341 36.1418 18.8976 32.4564 18.0351C32.0644 17.9567 31.4371 17.8783 30.8098 17.8783Z" fill="black"/>
</g>
<g id="XMLID_19667_">
<path id="XMLID_19668_" d="M30.8086 31.4429C27.5937 31.4429 24.9277 28.8553 24.9277 25.6404C24.9277 22.4255 27.5153 19.8379 30.8086 19.8379C31.2791 19.8379 31.7496 19.9163 32.1416 19.9947C34.8076 20.622 36.6895 22.9744 36.6895 25.6404C36.6895 26.8165 36.3759 27.9143 35.7486 28.8553C35.2781 29.561 34.7292 30.1098 34.0235 30.5803C33.4746 30.9724 32.8473 31.2076 32.22 31.3644C31.7496 31.4429 31.2791 31.4429 30.8086 31.4429ZM30.8086 21.7982C28.6915 21.7982 26.888 23.5232 26.888 25.6404C26.888 27.7575 28.6131 29.4826 30.8086 29.4826C31.1223 29.4826 31.4359 29.4826 31.6712 29.4041C32.1416 29.3257 32.5337 29.0905 32.8473 28.8553C33.3178 28.5416 33.7099 28.1496 33.9451 27.7575C34.3372 27.1302 34.5724 26.4245 34.5724 25.6404C34.5724 23.8369 33.3178 22.2687 31.5927 21.8766C31.4359 21.7982 31.1223 21.7982 30.8086 21.7982Z" fill="black"/>
</g>
</g>
</g>
</g>
</g>
</svg>
